<?xml version="1.0" encoding="UTF-8"?>
<!DOCTYPE svg PUBLIC "-//W3C//DTD SVG 1.1//EN" "http://www.w3.org/Graphics/SVG/1.1/DTD/svg11.dtd">
<!-- Creator: CorelDRAW 2021 (64-Bit) -->
<svg xmlns="http://www.w3.org/2000/svg" xml:space="preserve" width="26.9233in" height="15.786in" version="1.1" style="shape-rendering:geometricPrecision; text-rendering:geometricPrecision; image-rendering:optimizeQuality; fill-rule:evenodd; clip-rule:evenodd"
viewBox="0 0 26923.29 15785.98"
 xmlns:xlink="http://www.w3.org/1999/xlink"
 xmlns:xodm="http://www.corel.com/coreldraw/odm/2003">
 <defs>
  <style type="text/css">
   <![CDATA[
    .fil2 {fill:#010101}
    .fil18 {fill:#131313}
    .fil11 {fill:#232424}
    .fil12 {fill:#3A3A3A}
    .fil1 {fill:#4B4B4B}
    .fil15 {fill:#616161}
    .fil19 {fill:#717171}
    .fil13 {fill:#808182}
    .fil8 {fill:#9E9E9E}
    .fil16 {fill:#AEAEAE}
    .fil10 {fill:silver}
    .fil7 {fill:#D7D7D7}
    .fil17 {fill:#EFEFEF}
    .fil5 {fill:#FB3235}
    .fil6 {fill:#FB938B}
    .fil20 {fill:#FC1518}
    .fil0 {fill:#FD0000}
    .fil3 {fill:#FDB6B9}
    .fil4 {fill:#FF5E63}
    .fil9 {fill:#FFD1D1}
    .fil14 {fill:white}
   ]]>
  </style>
 </defs>
 <g id="Layer_x0020_1">
  <metadata id="CorelCorpID_0Corel-Layer"/>
  <g id="_1568791860528">
   <path class="fil0" d="M1334.62 9894.16l2558.75 -1.83 0.07 -3564.79c-290.72,-52.39 -1161.56,-6.55 -1505.12,-6.55l-926.02 1.57c-84.98,-0.96 -125.23,-23.43 -134.93,60.11l-0.78 1958.71c0,401.48 -42.46,1205.83 8.04,1552.78z"/>
   <path class="fil1" d="M6609.66 6650.7l-10.36 -9.4c-55.23,-13.1 -30.03,15.66 -52.27,-48.59 -5.4,-15.56 -8.84,-56.36 -1.09,-81.11 18.13,-57.92 66.41,-47.58 129.46,-43.02 75.51,101.93 96.7,71.3 261.54,68.89 39.18,-0.57 138.51,9.08 166.2,2.45 51.65,-12.37 57.55,-84.41 16.83,-112.98 -93.98,-65.93 -474.89,94.33 -549.53,-128.46 -27.18,-81.12 -30.8,-210.36 15.91,-280.15 44.72,-66.83 170.41,-70.35 271.59,-68.46 211.71,3.94 481.31,-46.94 456.52,216.46 -30.5,22.28 -53.79,35.91 -106.63,37.87 -85.65,-65.25 -48.59,-91.99 -203.02,-85.57 -90.85,3.78 -188.31,-12.96 -271.08,18.52 -38.61,142.43 122.58,97.86 327.7,97.14 165.97,-0.58 260.39,60.92 259.01,243.23 -2.19,287.37 -196.18,231.46 -507.6,233.93 -114.7,0.91 -181.82,10.46 -203.15,-60.75zm-564.39 606.41c70.43,33.26 1318.17,12.44 1512.44,12.34 136.26,-0.06 299,53.87 298.44,-86.98l-3.13 -1959.77c0,-559.5 57.63,-463.19 -306.6,-465.17 -192.46,-1.04 -1425.73,-26.09 -1496,13.13l-5.15 2486.45z"/>
   <path class="fil0" d="M8749.84 6613.13c-16.76,6.73 -171.7,233.64 -255.69,74.75 -27.85,-52.68 -1.59,-119.96 31.49,-155.01 66.89,-70.87 38.28,-34.87 83.09,-126.25 53.94,-110.02 222.39,-484.19 345.57,-474.5 122.51,9.64 145.33,130.74 197.65,213.54 50.64,80.17 34.09,13.75 84.28,121.76 17.18,36.96 40.51,100.2 63.54,145.46 29.05,57.12 158.66,209.67 89.21,289.5 -115.26,132.45 -222.6,-83.89 -251.11,-105.32l-388.01 16.07zm1102.72 628.46c31.42,-31.82 14.19,-1082.79 14.19,-1221.63 0,-162.71 35.48,-1162.57 -27.12,-1210.92 -33.85,-33.04 -1297.81,-11.18 -1457.98,-11.18 -341.96,0 -290.64,-88.93 -290.64,460.01l-0.01 1535.9c-0.2,551.31 -53.18,462.48 290.65,462.51 156.61,0.02 1447.33,15.48 1470.91,-14.69z"/>
   <path class="fil2" d="M8807.32 8684.72l371.19 -1.19 71.24 -153.94c176.88,-5.22 195.89,190.76 121.41,289.04 -74.35,98.1 -224.97,82.33 -380.01,83.13 -466.52,2.41 -397.14,-113.57 -395.9,-560.86 0.44,-160.52 75.6,-248.77 200.1,-280.12 55.95,-14.09 403.75,-11.8 440.61,5.15 281.19,129.31 150.24,436.28 6.92,367.61 -63.92,-30.63 -52.43,-86.16 -83.02,-151.88l-333.94 0.48 -18.58 402.58zm-706.77 1264.46c175.3,-0.08 1720.17,14.5 1753.66,-8.02l0.26 -2397.94c-302.17,-25.8 -710.72,-2.35 -1021.36,-2.35 -896,0 -734.06,-70 -735.3,296.37 -2.3,672.15 -32.74,1451.76 2.73,2111.94z"/>
   <path class="fil2" d="M7264.2 8444.28c90.7,32.9 90.82,150.51 74.25,269.2 -6.48,46.36 -28.69,97.71 -59.47,123.62 -22.14,18.64 -84.77,52.15 -116.37,52.4 -30.42,29.45 -9.15,30.44 -135.43,27.18 -118.55,-3.06 -318.2,15.25 -395.77,-21.14 -276.4,-129.64 -61.2,-288.11 -59.47,-339.17 -5.53,-59.63 -102.47,-188.52 -38.05,-354.02 37.57,-96.53 142.15,-156.12 266.89,-158.17 121.89,-2.01 304.68,-21.54 394.19,28.24 257.34,143.07 129.39,230.13 138.88,282.35l-147.31 28.89c-97.2,-15.07 37.06,-129.85 -430.26,-65.74 49.38,126.61 436.84,-39.05 507.91,126.36zm578.54 1506.86l-2.96 -2427.74 -12.69 -2.92 -1747.66 0 -12 0.19 -0.25 2415.21 9.98 11.36 1765.58 3.91z"/>
   <path class="fil3" d="M11282.37 6735.02c-79.64,0 -286.83,30.98 -304.41,-39.96 -22.61,-91.23 203.58,-57.73 270.56,-57.73l9943.74 -0.26c1381.07,0.5 2801.28,-10.02 4177.34,5.93 -1.36,125.94 -155.21,92.1 -249.58,92.1l-13837.63 -0.07zm9210.09 55.24l4627.62 -0.01c282.96,0.01 272.94,-10.4 297.55,-167.74l-239.37 -40.41c-18.77,1.26 0.72,11 -92.04,10.95 -4626.2,-1.98 -9279.33,-11.28 -13894.14,-0.06 -110.7,0.26 -254.71,-20.95 -277.02,66.2 -27.29,106.67 84.15,132.31 174.74,131.98 3128.44,-11.62 6273.71,-0.93 9402.66,-0.93z"/>
   <path class="fil4" d="M11282.37 6735.02l13837.63 0.07c94.37,0 248.22,33.84 249.58,-92.1 -1376.06,-15.95 -2796.26,-5.43 -4177.34,-5.93l-9943.74 0.26c-66.98,0 -293.16,-33.5 -270.56,57.73 17.59,70.94 224.78,39.96 304.41,39.96z"/>
   <path class="fil5" d="M1334.62 9894.16c-50.5,-346.95 -8.04,-1151.3 -8.04,-1552.78l0.78 -1958.71c9.69,-83.54 49.94,-61.07 134.93,-60.11l926.02 -1.57c343.57,0 1214.4,-45.83 1505.12,6.55l-0.07 3564.79 -2558.75 1.83zm-43.08 -3358.33c0,1127.21 -7.81,2271.14 4.84,3396.44 45.47,30.98 2169.93,17.26 2389.93,14.04l234.51 -6.07c59.02,-254 16.46,-1498.81 16.46,-1856.8 0,-308.74 0,-617.48 0,-926.22 0,-267.7 56.35,-694.02 -51.5,-885.91l-2197.25 -3.89c-344.29,-0.13 -397,-86.66 -397,268.41z"/>
   <path class="fil6" d="M1291.54 6535.83c0,-355.07 52.71,-268.54 397,-268.41l2197.25 3.89c107.85,191.89 51.5,618.2 51.5,885.91 0,308.74 0,617.48 0,926.22 0,357.99 42.56,1602.8 -16.46,1856.8l-234.51 6.07c-220,3.21 -2344.46,16.94 -2389.93,-14.04 -12.65,-1125.3 -4.84,-2269.22 -4.84,-3396.44zm-7.57 3421.88c43.82,34.16 2036.57,16.19 2368.49,16.04 440.17,-0.21 340.13,3.89 339.13,-471.65 -1.16,-547.08 0,-1094.31 0,-1641.41 0,-222.88 47.31,-1534.61 -41.18,-1599.72 -86.86,-63.92 -1979.67,-29.52 -2352.17,-31.96 -436.63,-2.85 -337.73,-2.06 -337.73,470.97 0,348.01 -29.35,3193.98 23.46,3257.74z"/>
   <path class="fil7" d="M15099.26 5635.03c86.91,-27.28 64.39,-122.2 212.52,-128.4 181.83,-7.61 142.56,83.22 235.4,92.93 -2.6,76.55 83.84,162.24 42.28,333.95 -18.83,77.85 -118.78,185.63 -200.62,201.8 -123.81,24.48 -226.04,-35.85 -272.84,-122.7 -53.74,-99.69 2.79,-265.86 -16.74,-377.58zm0 0c-32.49,26.67 -37.26,98.58 -43.2,143 -35.07,262.05 117.82,300.35 117.28,401.51 -89.21,-31.74 -152,-92.74 -201.98,-167.78 -66.47,-99.8 -3.74,-253.2 -28.38,-350.01 2.09,-2.1 4.73,-5.2 6.04,-6.56l11.96 -12.26c2.26,-2.31 9,-9.13 11.29,-11.48 10.65,-10.96 9.79,-9.53 21.53,-22.81 52.79,-59.64 93.02,-125.37 186.94,-131.7 -4.54,44.04 -18.24,55.35 -41.97,83.48 -29.85,35.38 -37.09,30.72 -39.51,74.61zm447.92 -35.46c-0.26,-65.89 -61.15,-49.46 -76.55,-117.79 59.43,-3.24 142.36,53.98 177.42,94.96 69.98,81.84 52.89,81.63 92.88,184.38 25.73,66.09 -9.76,351.94 -185.76,346.31 9.23,-110.53 80.09,-73 81.84,-263.33 0.8,-86.28 -12.77,-219.97 -89.83,-244.55zm-604.2 62.19l-16448.63 -11377.85 16448.63 11377.85z"/>
   <path class="fil7" d="M21019.16 5992.45c54.54,0.17 37.53,4.14 81.63,16.06 1.81,15.66 5.27,31.2 4.31,47.09 -2.39,39.33 4.21,-16.07 -2.97,20.96 -0.57,2.96 -2.52,6.94 -3.11,9.27 -6.44,25.34 -2.83,25.34 -42.37,20.52 -45.71,-5.58 -41.74,-47.33 -37.49,-113.91zm-571.26 -477.26l4.26 -67.41 119.31 -9.63c75.35,83.91 139.53,154.62 212.27,244.19 32.93,40.56 75.81,112.96 96.02,134.91 42.26,45.89 93.33,54.06 96.33,154.62 -72.17,-9.1 -43.75,-8.96 -91.68,-53.56l-164.34 -194.14c-167.7,-213.27 -141.33,-102.44 -216.44,-149.85 -38.51,-24.31 -9.49,-40.13 -55.74,-59.13zm1250.88 680.22c-54.85,30.35 0.52,41.25 -97.05,31.7 -26.78,-99.63 -1.63,-339.35 -3.55,-465.09l-9.3 -302.94c72.67,-19.4 153.11,-46.43 109.38,63.61 -32.26,81.19 -23.11,347.2 -21.81,450.51 1.22,97.53 26.87,146.13 22.33,222.21zm-1250.88 -680.22c-6.68,66.46 16.77,132.74 9.96,210.11 -6.25,70.94 -16.73,137.62 -10.39,224.24 8.59,117.01 17.49,84.66 -9.86,203.86 -26.16,113.97 22.98,122.06 118.93,97.25 19.83,-106.41 -25.98,-152.78 -7.72,-291.73 15.69,-119.27 -13.58,-208.79 -9.8,-324.12 108.58,-20.19 96.6,65.22 236.57,208.8l213.02 246.67c21.18,32.04 75.33,201.23 151.48,121.42 50.94,-48.12 17.46,-233.36 29.45,-315.81 15.37,-105.74 2.69,-249.26 7.22,-362.45 35.21,-1.43 119.82,4.53 145.57,-3 0.02,0 249.05,-195.71 247.56,102.46l-1.98 458.16c-5.12,68.31 -23.44,71.56 -22.1,136.17 79.5,55.46 140.31,52.77 215.07,-3.21 1.75,-78.92 -23.77,-57.47 -23.85,-250.93 -0.04,-93.81 0.68,-187.59 0.39,-281.39 -0.31,-102.63 -18.39,-202.05 75.7,-216.62 127.44,-19.72 73.92,96.86 198.03,23.78 -1.97,-159.51 -16.28,-127.9 -356.12,-120.3 -82.27,1.84 -178.77,5.11 -259.98,1.52 -156.01,-6.89 -110.14,59.86 -191.5,70.22 -65.04,-12.72 -70.08,-88.46 -168.19,-39.41 -15.06,36.94 28.04,412.48 24.54,506.77 -84.67,-14.4 -94.94,-71.46 -152.79,-140.73l-263.04 -313.01c-34.53,-35.04 -42.7,-54.61 -94.49,-59.48 -37.27,-3.49 -109.81,-9.32 -139.5,-9.06 -5.01,55.85 -8.02,84.98 37.82,119.82z"/>
   <path class="fil8" d="M6045.27 7257.11l5.15 -2486.45c70.27,-39.22 1303.54,-14.17 1496,-13.13 364.23,1.98 306.6,-94.33 306.6,465.17l3.13 1959.77c0.56,140.85 -162.19,86.92 -298.44,86.98 -194.27,0.1 -1442.01,20.93 -1512.44,-12.34zm-16.73 33.65c480.38,25.31 1080.56,12.34 1574.32,11.28l285.51 -9.93c31.02,-53.76 6.57,-2535.34 5.82,-2538.69l-7.2 -16.09c-401.1,-27.31 -877.38,-10.29 -1288.68,-10.29 -152.65,0 -376.59,-14.24 -520.19,-0.87 -146.15,13.6 -93.34,309.09 -93.34,449.65 0,359.54 0,719.09 0,1078.63 0,230.5 -53.43,910.09 43.75,1036.31z"/>
   <path class="fil9" d="M9915.1 7319.77l-1835.3 0.35c-95.4,-60.04 -50.62,-1083.2 -50.62,-1276.71 0,-149.26 -20.68,-1252.02 25.35,-1289.37l1862.12 -1.05c52.23,184.96 17.72,1831.3 21.34,2275.26 0.91,111.97 -22.58,245.12 -22.9,291.52zm0 0c106.14,-23.48 58.85,-457.01 58.85,-596.35 -0.01,-273.13 14.64,-1948.75 -13.12,-1980.53 -77.48,-43.4 -1846.66,-62.36 -1920.84,-16.67 -85.5,67.77 -42.22,951.98 -42.22,1129.59 0,393.27 6.04,791.56 0.19,1184.17 -4.24,285.36 -18.88,330.24 248.22,333.06l1140 0.15c133,0 504.63,45.07 528.92,-53.43z"/>
   <path class="fil5" d="M9852.56 7241.59c-23.58,30.17 -1314.3,14.7 -1470.91,14.69 -343.83,-0.03 -290.85,88.81 -290.65,-462.51l0.01 -1535.9c0,-548.94 -51.32,-460.01 290.64,-460.01 160.17,0 1424.13,-21.87 1457.98,11.18 62.6,48.35 27.12,1048.21 27.12,1210.92 0,138.83 17.24,1189.8 -14.19,1221.63zm29.11 -2474.41c-169.82,-46.26 -1263.98,-11.76 -1533.89,-11.76 -343.86,0.01 -293.55,-74.54 -293.55,502.45l-0.11 1606.24c0.19,462.4 -88.56,439.47 338.8,439.46 259.61,0 519.2,0 778.8,0 134.74,0 674.48,35.09 720.02,-42.94 33.45,-45.24 31.73,-2411.48 -10.06,-2493.45z"/>
   <path class="fil10" d="M9894.09 7483.2c62.62,78.19 28.38,479.37 28.36,611.97 -0.06,274.44 21.17,1860.44 -15.65,1901.06 -71.74,53.48 -765.69,21.48 -915.65,21.48 -197.37,0 -788.71,24.5 -935.05,-13.44 -32.39,-115.96 -15.28,-1949.68 -14.29,-2225.65 1.35,-374.47 -139.16,-309.33 780.04,-309.34 157.12,0 997.66,-19.8 1072.25,13.93zm65.06 2523.03c29.02,-41.9 9.4,-2086.92 11.65,-2333.24 2.46,-270.24 -68.78,-255.93 -313.73,-256.4l-1128.69 0.18c-126.19,0 -441.35,-47.91 -494.56,57.39 -40.61,80.37 -14.56,2058.37 -17.15,2332.78 -2.93,312.21 26.45,252.93 319.84,252.93l1128.69 0c141.01,0 426.04,44.43 493.95,-53.62z"/>
   <path class="fil11" d="M8100.56 9949.18c-35.48,-660.19 -5.03,-1439.8 -2.73,-2111.94 1.24,-366.37 -160.7,-296.37 735.3,-296.37 310.64,0 719.19,-23.44 1021.36,2.35l-0.26 2397.94c-33.49,22.52 -1578.36,7.93 -1753.66,8.02zm-6.33 46.6c218.83,5.19 1684.05,21.66 1784.31,-9.52 34.85,-118.6 15.49,-1554.3 15.49,-1879.37 0,-105.55 0.32,-211 -0.16,-316.56 -0.6,-131.21 21.62,-200.64 -33.52,-291.13 -374.15,-21.89 -1136.3,-0.8 -1580.28,-0.44 -241.91,0.2 -211.95,-49.99 -213.06,326.75l0.45 1922.8c-1.01,193.8 -13.21,121.96 26.76,247.47z"/>
   <path class="fil7" d="M16312.68 5895.6zm0 0zm0 0l194.17 328.38 118.2 -4.43 26.72 -825.57 -146.57 -14.06 -10.65 518.36c-102.19,-88.36 -151.05,-213.74 -261.43,-305.63 -87.96,-73.21 -186.3,-258.24 -350.18,-187.03 -22.15,92.77 26.28,50.17 47,173.39l5.73 476.33c-7.46,69.57 -79.05,127.47 -31.06,181.25l-0.24 12.34c29.94,0.64 107.52,12.45 128.07,-6.45l-14.13 -613.92c99.37,-12.19 216.83,238.96 294.37,267.04z"/>
   <path class="fil12" d="M7842.73 9951.15l-1765.58 -3.91 -9.98 -11.36 0.25 -2415.21 12 -0.19 1747.66 0 12.69 2.92 2.96 2427.74zm0 0l22.33 -2461.1 -17.43 -8.32 -1804.69 -0.46 -5.39 -6.13c-39.63,175.52 -29.35,2411.22 14.19,2510.51 66.47,21.16 1157.21,7.87 1381.81,7.89 75.11,0 150.74,-1.01 225.75,0.01 72.16,0.98 187.63,31.53 183.43,-42.4z"/>
   <path class="fil7" d="M17560.41 6145.71c-42.18,-164.74 -54.24,-122.8 -51.42,-348.52 1.09,-87.19 27.74,-342.74 13.9,-375.17l-168.74 0c-17.09,35.96 3.5,378.02 2.3,469.17 -2.22,167.86 34.41,272.12 149.92,334.95 84.43,45.92 321.9,53.67 405.06,7.16 14.1,-7.89 108.89,-100.56 123.19,-116.65 40.56,-45.6 27.31,-132.76 27.04,-213.92 -0.22,-64.98 12.24,-461.21 8.64,-476.55 -23.35,-99.9 -267.98,-78.32 -180.53,121.18 25.24,57.55 39.62,387.19 14.16,467.37 -55.42,174.45 -146.29,142.66 -343.52,130.98z"/>
   <path class="fil13" d="M6042.94 7481.26l1804.69 0.46 17.43 8.32 -22.33 2461.1c4.2,73.93 -111.27,43.38 -183.43,42.4 -75.01,-1.02 -150.64,-0.01 -225.75,-0.01 -224.6,-0.03 -1315.34,13.27 -1381.81,-7.89 -43.54,-99.29 -53.81,-2334.99 -14.19,-2510.51 -95.63,40.06 -46.83,405.64 -47.4,526.24l-0.27 1700.04c-1.11,376.97 -109.76,315.07 789.02,315.07 143.37,0 1033.23,19.43 1078.67,-14.57 85.93,-83.86 36.53,-1037.41 36.53,-1238.45 0,-169.69 17.88,-1202.82 -16.34,-1269.02 -59.2,-77.99 -752.64,-37.08 -906.98,-37.08 -143.23,0 -876.87,-36.2 -927.84,23.9z"/>
   <path class="fil7" d="M19651.9 6249.2c12.55,-38.68 11.03,-206.37 26.26,-228.83l349.82 -4.24 41.24 233.37 170.38 11.19c34.96,-73.31 -137.32,-396.11 -171.22,-466.94 -39.94,-83.46 -134.35,-509.87 -245.4,-365 -23.45,30.6 -157.4,426.52 -174.46,490.11 -19.46,72.5 -74.6,176.61 -114.09,220.76 -105.9,118.44 68.97,152.22 117.46,109.57z"/>
   <path class="fil14" d="M15099.26 5635.03c19.53,111.72 -36.99,277.89 16.74,377.58 46.8,86.85 149.03,147.19 272.84,122.7 81.84,-16.17 181.78,-123.95 200.62,-201.8 41.56,-171.71 -44.89,-257.4 -42.28,-333.95 -92.84,-9.71 -53.56,-100.55 -235.4,-92.93 -148.13,6.19 -125.62,101.12 -212.52,128.4z"/>
   <path class="fil10" d="M6037.56 7475.13l5.39 6.13c50.96,-60.1 784.61,-23.9 927.84,-23.9 154.34,0 847.78,-40.91 906.98,37.08 34.22,66.19 16.34,1099.33 16.34,1269.02 0,201.04 49.41,1154.59 -36.53,1238.45 -45.44,34 -935.3,14.57 -1078.67,14.57 -898.78,0 -790.13,61.9 -789.02,-315.07l0.27 -1700.04c0.57,-120.6 -48.23,-486.18 47.4,-526.24zm-52.65 2534.99c116.9,59.41 1355.12,26.37 1663.09,28.72 306.39,2.34 274.19,10.9 274.92,-302.27 0.61,-267.94 34.9,-2216.22 -31.61,-2281.35 -65.44,-64.07 -922.29,-32.06 -1089.83,-32.06 -888.73,0.04 -839.48,-71.58 -838.98,296.81 0.43,313.34 -29.83,2163.65 22.41,2290.14z"/>
   <path class="fil7" d="M6599.3 6641.3l10.36 9.4c93.41,11.01 92.29,31.1 214.39,30.42 215.72,-1.19 469,61.44 456.24,-239.59 -15.54,-367.03 -608.89,18.63 -586.96,-311.57 119.11,-60.2 139.94,-35.54 288.76,-38.4 278.78,-5.39 130.32,63.24 274.52,48.36 7.35,-181 -161.57,-148.93 -319.69,-147.23 -150.85,1.63 -300.13,-27.31 -332.26,116.73 -34.15,153.17 21.06,261.29 162.64,273.49 200.19,17.24 296.5,-40.53 404.3,37.44 31.76,212.67 -157.63,150 -336.39,151.83 -184.9,1.87 -123.82,-34.18 -177.91,-64.23 -110.59,-61.43 -67.26,97.39 -57.99,133.34z"/>
   <path class="fil15" d="M8094.22 9995.78c-39.96,-125.52 -27.77,-53.67 -26.76,-247.47l-0.45 -1922.8c1.11,-376.74 -28.86,-326.56 213.06,-326.75 443.98,-0.36 1206.13,-21.45 1580.28,0.44 55.14,90.49 32.91,159.93 33.52,291.13 0.48,105.56 0.16,211.01 0.16,316.56 0,325.07 19.36,1760.77 -15.49,1879.37 -100.26,31.17 -1565.48,14.71 -1784.31,9.52zm1799.87 -2512.57c-74.59,-33.73 -915.13,-13.93 -1072.25,-13.93 -919.2,0.02 -778.69,-65.13 -780.04,309.34 -0.98,275.97 -18.1,2109.69 14.29,2225.65 146.33,37.94 737.68,13.44 935.05,13.44 149.96,0 843.91,32 915.65,-21.48 36.82,-40.61 15.6,-1626.61 15.65,-1901.06 0.02,-132.61 34.26,-533.79 -28.36,-611.97z"/>
   <path class="fil16" d="M13984.49 5369.32c-33.58,3.07 -59.47,102.71 -81.31,136.44 -45.62,70.41 -32.29,92.68 -32.59,198.19 -0.41,139.94 10.5,93.35 46,183.68 43,109.37 7.16,65.76 88.41,153.11 205.08,220.47 312.09,239.94 704.01,218.81l44.95 -147.23 -130.72 25.89 -293.35 32.97c-55.74,-84.15 -245.44,-110.67 -270.1,-419.54 -32.98,-413.21 129.44,-368.26 174.49,-523.47 -150.5,1.07 -160.67,107.82 -249.78,141.15z"/>
   <path class="fil14" d="M24570.68 6078.58c43.99,39.95 81.01,108.1 138.92,78.95 62,-31.2 121.86,-40.26 165.94,-86.48 46.99,-49.26 78.13,-80.98 81.46,-179.02 2.91,-85.18 13.17,-198.87 -27.3,-248.8 -30.11,-37.15 -286.07,-223.21 -351.47,-82.77 -10.17,21.85 -9.87,459.26 -7.56,518.12z"/>
   <path class="fil7" d="M24570.68 6078.58c-2.31,-58.87 -2.61,-496.27 7.56,-518.12 65.4,-140.44 321.36,45.61 351.47,82.77 40.47,49.93 30.2,163.62 27.3,248.8 -3.33,98.04 -34.47,129.77 -81.46,179.02 -44.09,46.22 -103.94,55.28 -165.94,86.48 -57.91,29.15 -94.93,-39 -138.92,-78.95zm-146.76 113.2c-24.74,-58.48 -3.22,-357.89 -1.96,-453.2 0.93,-69.79 -10.6,-163.72 -7.73,-224.52 3.57,-75.61 68.84,-98.8 136.26,-74.85 24.01,82.78 -9.52,100.34 -12.78,205.12l2.09 441.27c13.69,49.71 51.03,56.32 72.93,143.97 -80.67,16.48 -144.36,20.72 -188.81,-37.79zm467.88 -40.41c5.94,-32.13 24.38,-51.47 45.15,-86.98 234.73,-401.26 -72.37,-482.08 -107.55,-580.29 178.11,2.17 276.11,122.46 283.19,300.84 5.05,127.52 7.37,171.15 -45.03,250.17 -41.94,63.24 -86.04,116.81 -175.76,116.25zm-498.27 -722.6l-27.41 800.17c119.44,44.55 395.33,53.66 532.16,4.8 143.18,-51.14 240.53,-201.17 243.87,-389.26 4.09,-231.24 -67.12,-328.61 -231.8,-403.57 -103.88,-47.28 -150.63,-14.75 -274.69,-29.7 -160.32,-19.32 -76.17,-52.2 -242.13,17.56z"/>
   <path class="fil3" d="M9066.65 6414.81c-40.49,13.39 -208.02,30.37 -239.33,-2.04 -51.94,-53.74 23.5,-147.99 41.31,-192.65 87.35,-218.82 229.33,60.78 198.02,194.69zm255.69 242.5c42.9,-75.87 -199.86,-494.93 -242.65,-553.82 -223.39,-307.37 -243.66,33.44 -504.13,459.49 -25.17,41.19 -48.7,117.57 38.15,101.83 63.62,-11.53 63.07,-69.26 101.61,-110.86 60.75,-65.58 246.62,-41.02 356.1,-40.06 169.2,1.5 132.48,207.56 250.93,143.42z"/>
   <path class="fil7" d="M22256.25 5688.54c27.96,94.11 335.15,210.14 202.55,416.55 -78.77,-36.35 -24.19,-104.17 -92.3,-167.42 -37.18,-34.54 -101.56,-83.51 -139.65,-113.38 -252.53,-197.97 -105.97,-317.61 -97.77,-317.96 71.95,-2.95 -0.15,161.53 127.18,182.21zm0 0c4.87,-93.72 -36.37,0.29 -46.51,-103.57 -5.81,-59.45 2.64,-44.76 41.28,-123.65l241.83 100.05 -20.97 -189.89c-171.98,-45.81 -364.96,47.91 -436.27,156.06 -31.48,323.87 340.72,333.66 327.67,551.04 -140.19,168.48 -199.1,-31.79 -362.64,19.02l-0.04 138.83c51.71,57.28 212.91,42.33 302.12,29.93 116.99,-16.28 154.59,-52.59 204.31,-147.41 102.09,-194.64 -162.58,-437.02 -250.78,-430.41z"/>
   <path class="fil13" d="M6599.3 6641.3c-9.26,-35.95 -52.6,-194.77 57.99,-133.34 54.09,30.05 -6.98,66.1 177.91,64.23 178.77,-1.83 368.15,60.85 336.39,-151.83 -107.8,-77.98 -204.11,-20.2 -404.3,-37.44 -141.57,-12.2 -196.79,-120.32 -162.64,-273.49 32.13,-144.04 181.41,-115.1 332.26,-116.73 158.12,-1.7 327.04,-33.78 319.69,147.23 -144.2,14.89 4.25,-53.74 -274.52,-48.36 -148.83,2.87 -169.65,-21.8 -288.76,38.4 -21.93,330.2 571.42,-55.46 586.96,311.57 12.76,301.04 -240.52,238.4 -456.24,239.59 -122.1,0.68 -120.98,-19.41 -214.39,-30.42 21.33,71.2 88.45,61.66 203.15,60.75 311.43,-2.46 505.42,53.44 507.6,-233.93 1.39,-182.31 -93.04,-243.81 -259.01,-243.23 -205.12,0.72 -366.31,45.28 -327.7,-97.14 82.77,-31.48 180.23,-14.73 271.08,-18.52 154.43,-6.43 117.37,20.31 203.02,85.57 52.84,-1.97 76.13,-15.59 106.63,-37.87 24.8,-263.41 -244.81,-212.52 -456.52,-216.46 -101.18,-1.89 -226.87,1.63 -271.59,68.46 -46.7,69.79 -43.09,199.03 -15.91,280.15 74.64,222.8 455.55,62.54 549.53,128.46 40.72,28.57 34.82,100.61 -16.83,112.98 -27.69,6.63 -127.02,-3.02 -166.2,-2.45 -164.83,2.41 -186.03,33.04 -261.54,-68.89 -63.04,-4.56 -111.33,-14.9 -129.46,43.02 -7.74,24.75 -4.31,65.54 1.09,81.11 22.24,64.26 -2.96,35.49 52.27,48.59z"/>
   <path class="fil12" d="M8807.32 8684.72c7.4,70.59 219.43,40.53 286.11,41.49 162.85,2.33 83.8,-74.94 182.57,-158.13 146.35,39.6 103.83,248.48 -25.77,285.34 -52.28,14.87 -413.7,16.07 -478.37,3.55 -162.61,-31.48 -139.32,-182.39 -139.24,-351.45 0.09,-177.6 -34.55,-351.4 144.02,-379.45 159.48,-10.47 403.39,-34.52 517.21,38.31 59.86,38.3 92.63,165.87 34.8,212.99 -82,66.8 -98.82,-79.11 -133.23,-124.77l-380.99 -4.96c-38.83,75.47 -29.18,119.23 -28.49,222.7l-3 176.52c7.81,36.79 -4.84,26.31 24.38,37.86zm0 0l18.58 -402.58 333.94 -0.48c30.59,65.72 19.1,121.25 83.02,151.88 143.32,68.67 274.27,-238.3 -6.92,-367.61 -36.86,-16.95 -384.67,-19.24 -440.61,-5.15 -124.5,31.35 -199.66,119.6 -200.1,280.12 -1.24,447.29 -70.61,563.27 395.9,560.86 155.04,-0.8 305.67,14.97 380.01,-83.13 74.48,-98.28 55.47,-294.26 -121.41,-289.04l-71.24 153.94 -371.19 1.19z"/>
   <path class="fil1" d="M7176.8 8453.44c116.67,-2.78 140.72,251.78 72.72,328.81 -22.93,79.69 -102.66,70.94 -188.41,72.06 -233.43,3.03 -519.61,40.64 -498.6,-176.09 148.47,-85.41 61.51,52.29 238.2,54.92 71.19,1.05 282.51,14.54 329.26,-14.54 38.75,-24.09 54.96,-90.07 25.29,-133.15 -28.46,-41.31 -94.46,-31.38 -150.59,-30.78 -83.45,0.89 -259.43,19.46 -318.67,-14.48 -144.45,-82.81 -162.18,-404.37 80.85,-416.9 156.36,-8.06 578.6,-40.97 500.36,173.86 -76.33,32.21 -70.55,3.83 -123.14,-28.82 -56.65,-35.19 -409.66,-33.47 -438.03,14.42 -46.22,283.67 415.22,50.6 470.74,170.69zm-14.19 436.06c31.59,-0.25 94.22,-33.76 116.37,-52.4 30.78,-25.91 52.99,-77.26 59.47,-123.62 16.57,-118.69 16.45,-236.3 -74.25,-269.2 -78.99,-28.75 -67.2,-52.73 -180.29,-54.57 -70,-1.14 -144.99,0.62 -215.27,1.81 -172.43,2.92 -218.22,-122.54 23.12,-119.24 52.71,0.72 167.19,-6.77 211.24,6.63 58.04,17.65 75.5,86.7 161.78,57.95 121.22,-40.39 8.17,-223.1 -125.93,-245.13 -56.31,-9.25 -372.24,-8.53 -427.39,1.8 -124.1,23.25 -167.57,132.54 -154.3,283.43 12.37,140.75 97.08,214.19 220.96,215.26 320,2.77 363.95,-45.83 360.7,89.09 -95.57,18.22 -226.78,13.88 -337.75,12.45 -158.16,-2.02 -108.94,-136.84 -259,-47.98 -94.07,316.44 393.65,243.26 620.53,243.7z"/>
   <path class="fil17" d="M19078.41 5457.2c11.52,-8.93 6.75,-6.31 25.43,-14.28 42.89,-18.29 82,-14.4 125.88,-10.43 2.25,79.01 -17.44,127.99 -27.61,194.38 -15.05,98.24 1.08,323.15 7.41,427.42 3.96,65.26 44.09,167.93 -28.17,189.66 -167.98,50.52 -83.43,-220.26 -87.89,-341.51 -4.59,-124.83 -22.96,-316.85 -15.05,-445.24zm-52.54 795.8c50.62,10.63 60.6,24.84 123.46,24.84 142.74,0 110.82,-59.64 100.35,-175.67l14.96 -602.22 262.89 43.67 -1.41 -150.84c-59.36,-50.26 -746.63,-29.69 -760.97,-18.63 -25.25,19.48 -72.21,152.69 24.25,165.6 95.68,12.8 106.17,-87.5 222.18,-22.2 64.6,36.36 47.84,130.6 47.54,220.9 -0.33,93.31 3.87,188.93 0.68,281.61 -3.69,107.04 -52.58,112.15 -33.91,232.94z"/>
   <path class="fil6" d="M9881.68 4767.18c41.79,81.96 43.51,2448.21 10.06,2493.45 -45.54,78.03 -585.28,42.94 -720.02,42.94 -259.59,0 -519.19,0 -778.8,0 -427.35,0.02 -338.61,22.94 -338.8,-439.46l0.11 -1606.24c0,-576.99 -50.31,-502.44 293.55,-502.45 269.91,0 1364.06,-34.51 1533.89,11.76zm33.42 2552.59c0.32,-46.4 23.81,-179.55 22.9,-291.52 -3.63,-443.97 30.89,-2090.3 -21.34,-2275.26l-1862.12 1.05c-46.03,37.35 -25.35,1140.1 -25.35,1289.37 0,193.51 -44.78,1216.67 50.62,1276.71l1835.3 -0.35z"/>
   <path class="fil7" d="M11316.49 5746.98l-11.91 -8.46c-90.98,-19.63 -262.91,-150.31 -296.73,-241.03 -55.66,-149.29 104.62,-360.77 195.13,-298.03 55.81,97.91 -82.61,11.49 -69.44,186.25 12.88,170.85 374.72,272.18 432,460.06 58.83,192.93 -99.44,351.54 -211.54,386.44 -25.07,7.81 -231.46,17.42 -275.04,19.65 -165.94,8.5 -173.2,-200.58 -65.88,-164.84 52.65,17.54 61.42,67.27 124.47,82.1 82.61,19.43 188.63,15.7 231.26,-36.59 179.01,-219.54 -16.18,-284.83 -52.32,-385.56zm213.44 -491.37c-0.17,-1.72 -1.77,7.22 -3.09,10.68 -89.13,40.88 -182.77,-34.73 -137.74,-83.76 20.8,-22.64 83.56,-14.32 110.39,0.18 38.41,20.74 33.23,32.4 32.78,62.4 -0.02,2.63 -2.19,12.17 -2.35,10.51zm-394.29 885c-44.01,-12.49 -121.39,-155.85 -209.54,-108.94 -124.63,253.22 141.44,240.38 311.33,236.2 175.06,-4.32 320.31,-74.52 347.35,-227.02 86.6,-488.39 -450.37,-387.32 -423.76,-739.59 294.37,-148.52 283.3,137.37 414.81,55.86 123.57,-459.33 -792.26,-239.3 -582.06,176.83 44.95,89 100.49,107.24 161.04,161.35 51.95,46.43 9.12,41.09 84.22,73.69 80.97,35.15 28.61,35.72 87.16,87.78 39.02,34.67 158.93,95.11 60.03,213.45 -63.95,76.51 -114.85,80.01 -250.58,70.39z"/>
   <path class="fil18" d="M7162.61 8889.5c-226.88,-0.44 -714.61,72.74 -620.53,-243.7 150.06,-88.86 100.84,45.96 259,47.98 110.97,1.43 242.19,5.78 337.75,-12.45 3.25,-134.93 -40.7,-86.32 -360.7,-89.09 -123.88,-1.07 -208.59,-74.51 -220.96,-215.26 -13.28,-150.9 30.2,-260.19 154.3,-283.43 55.15,-10.33 371.08,-11.05 427.39,-1.8 134.09,22.03 247.14,204.74 125.93,245.13 -86.28,28.74 -103.74,-40.3 -161.78,-57.95 -44.06,-13.41 -158.54,-5.91 -211.24,-6.63 -241.34,-3.3 -195.55,122.16 -23.12,119.24 70.28,-1.19 145.27,-2.95 215.27,-1.81 113.09,1.84 101.3,25.82 180.29,54.57 -71.07,-165.41 -458.53,0.25 -507.91,-126.36 467.31,-64.11 333.06,50.67 430.26,65.74l147.31 -28.89c-9.49,-52.22 118.46,-139.28 -138.88,-282.35 -89.5,-49.77 -272.3,-30.24 -394.19,-28.24 -124.74,2.05 -229.32,61.63 -266.89,158.17 -64.43,165.5 32.52,294.39 38.05,354.02 -1.73,51.06 -216.93,209.53 59.47,339.17 77.57,36.39 277.22,18.08 395.77,21.14 126.28,3.26 105.01,2.27 135.43,-27.18z"/>
   <path class="fil5" d="M9322.34 6657.31c-118.45,64.14 -81.73,-141.93 -250.93,-143.42 -109.48,-0.95 -295.35,-25.52 -356.1,40.06 -38.54,41.6 -37.99,99.33 -101.61,110.86 -86.85,15.73 -63.32,-60.65 -38.15,-101.83 260.47,-426.05 280.75,-766.87 504.13,-459.49 42.8,58.89 285.55,477.95 242.65,553.82zm-572.5 -44.19l388.01 -16.07c28.52,21.44 135.85,237.78 251.11,105.32 69.45,-79.83 -60.16,-232.38 -89.21,-289.5 -23.02,-45.26 -46.35,-108.5 -63.54,-145.46 -50.19,-108.01 -33.64,-41.6 -84.28,-121.76 -52.31,-82.81 -75.13,-203.91 -197.65,-213.54 -123.18,-9.68 -291.63,364.48 -345.57,474.5 -44.81,91.38 -16.2,55.37 -83.09,126.25 -33.07,35.05 -59.33,102.33 -31.49,155.01 83.98,158.89 238.93,-68.02 255.69,-74.75z"/>
   <path class="fil8" d="M12299.17 5799.65c-81.43,54.07 -36.52,43.59 -170.58,45.41 -81.44,1.11 -125.48,10.91 -125.18,-82.8 0.32,-99.91 48.09,-97.97 68.32,-151.41 34.7,-91.67 -15.7,-83.8 79.73,-134.6l28.04 35c48.44,58.39 121.13,214.89 119.67,288.4zm-465.7 100.83c10.37,86.16 -14.87,122.34 -56.59,164.66 -25.83,26.2 -50.51,101.96 -52.3,121.75 -8.69,95.98 89.97,61.48 137.03,36.34 8.86,-52.48 -26.49,-236.04 107.63,-299.76 37.13,-17.64 333.72,-15.25 385.38,-6.36 21.5,29.3 75.55,101.61 83.35,128.31 29.62,101.41 -37.55,93.01 -4.28,185.52 37.3,13.58 214.02,47.41 212.32,-33.14 -1.81,-85.79 4.64,-17.2 -19.9,-48.81 -4.09,116 -80.37,53.51 -153.21,41.24 -7.79,-267.37 -78.47,-240.42 -111.11,-319.85 -31.63,-76.94 -98.8,-415.43 -214.74,-499.65 -24.07,47.04 -14.74,65.32 -63.31,70.83 -36.07,-69.83 25.02,-142.85 42.51,-200.33 -4.27,0.06 17.9,-33.7 -31.58,16.76 -24.93,25.43 -105.23,285.94 -108.65,315.88 -5.33,46.75 -14.36,51.61 -32.01,77.16 -26.83,38.88 -19.62,48.55 -35.94,94.87 -13.6,38.63 -55.8,138.63 -84.61,154.59z"/>
   <path class="fil7" d="M7249.52 8782.25c68,-77.04 43.95,-331.6 -72.72,-328.81 -78.19,7.94 -255.82,4.42 -341.74,2.02 -132,-3.67 -176.97,-44.59 -157.13,-185.45 104.58,-76.91 132.96,-63.7 292.87,-64.33 56.83,-0.24 121.5,-10.26 159.73,17.21 103.58,74.46 53.35,67.76 111.14,51.28 16.44,-133.23 -153.89,-111.92 -259.59,-111.49 -133.58,0.54 -272.94,-26.46 -347.73,50.15 -115.61,529.89 405.54,196.39 537.07,342.24 36.06,39.99 36.79,134.76 -2.91,179.44 -46.54,52.36 -325.84,37.32 -401.2,31.72 -132.33,-9.85 -49.52,-76.31 -160.06,-63.24 -0.89,162.24 135.67,130.83 284.54,130 67.83,-0.37 135.57,2.54 203.09,0.03 99.08,-3.69 90.94,-28 154.64,-50.76z"/>
   <path class="fil7" d="M11833.46 5900.47c28.81,-15.97 71.01,-115.96 84.61,-154.59 16.32,-46.32 9.11,-55.99 35.94,-94.87 17.65,-25.55 26.67,-30.41 32.01,-77.16 3.41,-29.94 83.72,-290.45 108.65,-315.88 49.48,-50.46 27.31,-16.7 31.58,-16.76l14.02 -65.7c134.43,-1.83 99.16,121.29 152.97,216.06 43.31,76.26 69.89,189.28 114.06,256.93 47.67,73.03 22.38,53.09 46.55,138.74l106.77 266.11c20.82,65.39 44.7,45.52 65.48,95.63 24.54,31.61 18.09,-36.97 19.9,48.81 1.69,80.55 -175.02,46.72 -212.32,33.14 -33.27,-92.5 33.9,-84.11 4.28,-185.52 -7.8,-26.7 -61.84,-99.01 -83.35,-128.31 -51.66,-8.89 -348.26,-11.28 -385.38,6.36 -134.12,63.72 -98.77,247.28 -107.63,299.76 -47.06,25.15 -145.72,59.64 -137.03,-36.34 1.79,-19.79 26.46,-95.55 52.3,-121.75 41.72,-42.32 66.96,-78.5 56.59,-164.66zm0 0c-37.95,5.87 -7.53,-22.77 -31.89,28.64 -8.91,18.82 -5.8,36.28 -13.93,56.97 -0.07,0.17 -142.48,213.93 -111.21,256.64 44.99,42.4 172.48,36.79 210.04,-5.59 32.52,-48.78 -32.49,-234.48 101.57,-282.33 44.52,-15.88 277.35,-6 355.86,-18.36 23.54,94.35 67.2,57.25 62.52,189.05 -26.7,36 -79.81,53.62 -40.8,117.23 33.38,41.54 460.36,92.94 267.04,-148.1 -44.21,-55.14 -1.3,-60.8 -65.59,-143.32 -38.22,-49.05 -22.44,-96.5 -57.55,-151.01 -55.39,-86.01 -19.43,-97.32 -52.42,-156.41 -71.16,-127.4 -19.56,-76.59 -62.79,-146.52 -140.8,-227.77 -79.45,-369.67 -260.61,-373.98l-91.49 177.68c-33.72,83.5 10.56,24.4 -53.12,139.57l-56.96 137.08c-20.21,70.75 -115.39,184.08 -98.67,322.78z"/>
   <path class="fil7" d="M13984.49 5369.32c89.12,-33.33 99.28,-140.08 249.78,-141.15 -45.04,155.2 -207.47,110.26 -174.49,523.47 24.66,308.87 214.36,335.39 270.1,419.54l293.35 -32.97c-199.75,8.76 -257.35,27.04 -382.19,-84.51 -102.29,-91.42 -138.65,-147.3 -142.4,-326.53 -4.01,-191.54 -3.57,-271.24 86.83,-384.72 57.37,-72.04 228.16,-120.44 346.03,-108.96 158.35,15.43 248.07,156.31 301.45,103 80.07,-79.96 -7.55,-226.64 -175.11,-226.07 -272.42,0.94 -620.58,10.93 -673.35,258.91z"/>
   <path class="fil10" d="M18278.46 6244.02l501.15 -5.11 -7.02 -112.97c-193.75,13.02 -347.62,109.45 -345.89,-117.7l1.16 -211.04c0,-61.35 20.78,-327.28 18.57,-335.98 -14.96,-58.9 -204.74,-135.93 -146.31,102.33 38.78,158.1 -25.39,671.74 -21.66,680.48z"/>
   <path class="fil8" d="M7249.52 8782.25c-63.7,22.76 -55.56,47.08 -154.64,50.76 -67.52,2.51 -135.27,-0.4 -203.09,-0.03 -148.87,0.83 -285.43,32.24 -284.54,-130 110.54,-13.07 27.73,53.4 160.06,63.24 75.36,5.59 354.66,20.63 401.2,-31.72 39.7,-44.67 38.96,-139.44 2.91,-179.44 -131.52,-145.86 -652.67,187.65 -537.07,-342.24 74.79,-76.61 214.15,-49.6 347.73,-50.15 105.7,-0.43 276.03,-21.74 259.59,111.49 -57.79,16.48 -7.56,23.18 -111.14,-51.28 -38.24,-27.48 -102.9,-17.45 -159.73,-17.21 -159.91,0.63 -188.29,-12.57 -292.87,64.33 -19.83,140.86 25.13,181.78 157.13,185.45 85.92,2.39 263.55,5.91 341.74,-2.02 -55.52,-120.09 -516.96,112.98 -470.74,-170.69 28.37,-47.89 381.37,-49.6 438.03,-14.42 52.59,32.65 46.81,61.03 123.14,28.82 78.24,-214.83 -344,-181.92 -500.36,-173.86 -243.04,12.53 -225.31,334.09 -80.85,416.9 59.23,33.94 235.21,15.37 318.67,14.48 56.12,-0.59 122.13,-10.52 150.59,30.78 29.67,43.08 13.46,109.05 -25.29,133.15 -46.75,29.08 -258.07,15.59 -329.26,14.54 -176.69,-2.63 -89.73,-140.33 -238.2,-54.92 -21.01,216.73 265.18,179.12 498.6,176.09 85.75,-1.12 165.48,7.63 188.41,-72.06z"/>
   <path class="fil16" d="M23058.47 5414.48c20.78,503.03 15.39,314.04 -20.67,817.65l14.43 1.47c35.71,53.33 228.4,16.2 295.93,17.26 146.64,2.28 194.33,32.53 189.13,-122.78 -71.92,-1.37 -248.06,102.33 -329.59,14.67l-16.61 1.39c-18.13,-234.17 -12.08,-189.62 -11.65,-393.83 0,-195.02 85.57,-378.17 -120.96,-335.82z"/>
   <path class="fil8" d="M11304.58 5738.52c-46.91,-79.47 -327.02,-171.94 -254.39,-358.18 81.32,23.5 0.83,6.13 141.18,149.06 143.28,145.9 387.09,191.43 355.95,462.28 -75.95,-18.82 -38.82,-66.78 -105.85,-135.76 -77.44,-79.7 -64.04,-90.13 -124.98,-108.93 36.14,100.73 231.33,166.02 52.32,385.56 -42.63,52.29 -148.65,56.02 -231.26,36.59 -63.06,-14.83 -71.83,-64.56 -124.47,-82.1 -107.31,-35.74 -100.06,173.35 65.88,164.84 43.58,-2.23 249.97,-11.84 275.04,-19.65 112.1,-34.91 270.37,-193.52 211.54,-386.44 -57.28,-187.89 -419.13,-289.21 -432,-460.06 -13.17,-174.76 125.26,-88.33 69.44,-186.25 -90.5,-62.74 -250.78,148.74 -195.13,298.03 33.82,90.72 205.75,221.4 296.73,241.03z"/>
   <path class="fil10" d="M23722.65 5435.79c20.87,52.55 96.53,57.35 106.05,138.97l-1.13 512.31c-9.6,65.51 -71.24,95.74 -25.56,153.43 43.94,34.25 154.19,14.18 174.18,-13.76 30.77,-40.8 0.84,-95.35 -11.21,-133.02 -15.16,-47.35 -14.78,-491.2 -8.33,-518.57 9.44,-39.98 143.67,-181.32 -43.43,-176.35 -89.4,2.38 -152.26,-18.75 -190.57,36.99z"/>
   <path class="fil15" d="M12126.25 5241.21c-17.49,57.48 -78.59,130.5 -42.51,200.33 48.56,-5.51 39.23,-23.79 63.31,-70.83 115.94,84.22 183.1,422.71 214.74,499.65 32.65,79.43 103.33,52.48 111.11,319.85 72.84,12.27 149.12,74.76 153.21,-41.24 -20.78,-50.11 -44.66,-30.24 -65.48,-95.63l-106.77 -266.11c-24.17,-85.65 1.12,-65.71 -46.55,-138.74 -44.17,-67.65 -70.75,-180.67 -114.06,-256.93 -53.81,-94.77 -18.54,-217.89 -152.97,-216.06l-14.02 65.7z"/>
   <path class="fil7" d="M8716.11 8182.96c-11.05,25.01 -37.35,18.2 -43.87,146.65 -3.17,62.52 0.11,135.52 -0.03,199.35 -0.71,336.01 -0.17,313 477.48,308.5 73.77,-0.69 111.48,-5.07 145.8,-52.91 32.83,-45.81 54.31,-93.89 15.21,-154 -84.89,1.06 -34.2,34.07 -79.77,78.61 -26.58,83.79 -123.58,55.5 -217.21,57.72 -71.4,1.69 -172.64,15.37 -230.19,-21.2 -61.91,-39.33 -46.66,-367.47 -37.35,-473.21 90.97,-87.07 163.01,-64.96 301.57,-66.75 236.55,-3.03 162.59,78.3 236.85,140.17 13.45,-12.92 13.04,-6.24 23.89,-31.59 13.73,-32.03 4.88,-88.29 -2.89,-101.89 -50.23,-87.96 -509.38,-48.99 -589.48,-29.44z"/>
   <path class="fil16" d="M24423.92 6191.78c44.44,58.51 108.14,54.27 188.81,37.79 -21.9,-87.65 -59.24,-94.26 -72.93,-143.97l-2.09 -441.27c3.27,-104.78 36.8,-122.34 12.78,-205.12 -67.41,-23.96 -132.68,-0.76 -136.26,74.85 -2.87,60.8 8.67,154.73 7.73,224.52 -1.26,95.31 -22.78,394.73 1.96,453.2z"/>
   <path class="fil19" d="M21871.61 7077c92.08,-12.48 104.37,24.39 70.22,167.94l-66.78 1.62c-14.98,-63.59 -18.34,-94.41 -3.44,-169.56zm-12.58 -120.11c-209.15,68.94 -173.21,476.66 108.54,394.61 72.67,-21.16 141.88,-161.21 107.38,-254.59 -35.14,-95.09 -96.54,-179.4 -215.92,-140.03z"/>
   <path class="fil16" d="M19078.41 5457.2c-7.91,128.39 10.46,320.41 15.05,445.24 4.47,121.25 -80.09,392.03 87.89,341.51 72.25,-21.73 32.13,-124.39 28.17,-189.66 -6.33,-104.27 -22.46,-329.19 -7.41,-427.42 10.17,-66.39 29.86,-115.37 27.61,-194.38 -43.89,-3.98 -83,-7.87 -125.88,10.43 -18.68,7.96 -13.91,5.35 -25.43,14.28z"/>
   <path class="fil10" d="M13291.6 5274.45c-52.67,-8.37 -43.28,-43.91 -33.79,-97.78 45.24,-3.48 64.17,7.62 89.24,23.08 4,52.7 10.76,85.19 -55.44,74.7zm-416.37 237.98c-19.29,-85.39 -55.89,-89.7 -2.6,-185.03 25.3,-45.26 67.04,-119.55 125.22,-81.24 -104.93,90.09 -96.37,182.81 18.85,260.39 154.84,123.41 305.54,196.59 381.41,354.54 1.59,3.31 3.33,6.44 4.88,9.53l11.36 20.31c-4.61,-106.72 -25.5,-122.72 -78.24,-175.27 -92.29,-91.91 -134.69,-104.05 -213.91,-165.09 -47.29,-36.43 -191.66,-113.33 -126.82,-234.07 18.13,-33.73 135.24,-75.68 138.03,-75.81 77.93,9.52 149.52,99.46 225.75,98.33 24.1,-18.58 51.59,-63.17 43.52,-114.09 -19.76,-124.72 -261.59,-128.54 -351.46,-86.94 -130.3,60.33 -101.69,7.52 -189.26,132.45 -29.42,42 -85.67,103.69 -41.91,193.45 21,43.07 26.54,37.74 55.17,48.54z"/>
   <path class="fil15" d="M12875.24 5512.43c19.56,38.73 -7.41,73.27 133.22,157.14 30.13,17.98 94.21,95.51 170.76,113.7 52.35,7.73 57.17,11.7 79.37,58.96 33.34,71.02 78.01,109.5 36.11,202.6 -10.6,23.54 -29.01,80.61 -33.25,87.2 32.06,-3.45 305.96,-236.55 -92.5,-489.31 -27.37,-17.37 -52.12,-35.48 -80.74,-55.27 -36.81,-25.45 -52.27,-38.43 -71.5,-80.93 -115.22,-77.57 -123.78,-170.3 -18.85,-260.39 -58.17,-38.3 -99.91,35.99 -125.22,81.24 -53.3,95.33 -16.69,99.65 2.6,185.03z"/>
   <path class="fil8" d="M13179.21 5783.28c29.54,69.82 69.11,46.47 73.24,177.74 3.29,104.94 -18.94,131.01 -74.51,175.42 -43.39,34.66 -141.15,32.5 -213.35,21.75 -93.14,-13.87 -80.13,-103.93 -177.77,-52.62 -31.93,70.44 7.85,106.09 40.58,148.39 92.93,9.58 146.75,-5.06 226.83,-8.19 103.35,-4.03 129.42,14.65 200.02,-41.24 101.3,-80.17 171.11,-126.21 160.1,-313.61l-11.36 -20.31c-1.54,-3.09 -3.29,-6.22 -4.88,-9.53 -75.88,-157.95 -226.57,-231.13 -381.41,-354.54 19.22,42.5 34.69,55.48 71.5,80.93 28.62,19.79 53.38,37.9 80.74,55.27 398.46,252.76 124.57,485.86 92.5,489.31 4.24,-6.59 22.65,-63.66 33.25,-87.2 41.9,-93.1 -2.77,-131.58 -36.11,-202.6 -22.2,-47.26 -27.02,-51.24 -79.37,-58.96z"/>
   <path class="fil19" d="M19804.69 7099.33c27.44,-15.38 30.94,-23.04 67,-28.39 67.9,56.83 50.66,119.26 0.72,192.09 -75.36,-22.86 -74.12,-71.69 -67.72,-163.71zm-42.67 -126.95c-36.09,26.09 -54.7,46.21 -57.76,113.66 -1.87,41.02 -2.5,150.11 2.46,188.12 13.53,103.73 179.94,98.02 243.33,45.99 57.12,-46.89 115.76,-170.6 49.99,-261.73 -1.43,-1.97 -3.5,-4.71 -4.93,-6.68l-30.18 -38.16c-52.83,-53.66 -145,-83.07 -202.91,-41.2z"/>
   <path class="fil19" d="M20315.62 7875.84c-40.31,4.13 -70.16,13.92 -91.32,-19.78 -20.83,-33.17 -23.59,-195.68 124.72,-80.95l-33.41 100.73zm-223.87 -38.61c15.24,65.25 108.35,172.08 197.76,158.79 229.83,-34.13 204.71,-443.91 -54.74,-371.37 -54.54,15.24 -163.89,123.19 -143.03,212.57z"/>
   <path class="fil7" d="M16914.45 5808.98l8.87 58.55c58.24,16.67 68.27,23.42 106.15,55.13l38.1 45.09c58.96,85.73 36.52,76.52 -9.67,152.15 -1.85,3.03 -7.6,12.93 -9.26,15.76l-9.96 16.92c-53.55,0.06 -119.1,4.21 -162.55,-9.22 -48.48,-15.01 -76.16,-67.95 -126.7,-25.22 -32.57,39.33 -10.88,106.61 23.67,129.7 44.65,29.81 121.81,15.85 175.94,14.33 187.14,-5.28 365.72,-204.6 252.53,-364.37 -93.5,-131.97 30.72,-21.45 -197.42,-193.02 -36.04,-27.1 -40.38,-30.4 -76.37,-40.61 18.02,43.93 166.78,152.68 193.82,175.8 54.2,46.35 112.61,152.21 63.81,244.11 -52.69,-13.05 -33.11,-28.04 -48.04,-84.44 -19.06,-72.01 -171.8,-178.05 -222.92,-190.63z"/>
   <path class="fil15" d="M17206.19 7978.71c87.13,18.82 83.12,-55.46 112.18,-108.02l58.94 -0.18c37.74,94.3 10.31,161.26 138.68,122.39 26.57,-94.35 -7.56,-109.04 -2.35,-188.9 5,-76.34 46.59,-141.27 -57.33,-126.61 -6.78,13.02 -6.65,16.02 -11.05,26.21l-22.81 46.96 -86.22 -105.84c-27.38,-14.12 -38.47,-20.49 -91.96,-15.72 -57.64,85 -31.94,55.94 -25.14,162.43 1.13,17.75 -9.96,163.87 -12.93,187.28z"/>
   <path class="fil7" d="M22902.4 7288.59l-1.53 14.97 -19.26 45.5c-191.47,-116.26 -89.78,-55.32 -199.27,-20l-37.77 -26.97c-9.43,-104.4 -0.73,-286.88 43.39,-348.93 61.64,-0.86 68.15,13.98 107.81,39.92 4.26,33.94 7.54,82.06 20.1,106.97 24.37,48.41 65.4,30.94 65.72,30.22 1.67,-3.6 6.63,-1.26 9.64,-2.73 34.63,-35.67 4.75,-165.87 142.55,-160.08 30.57,83 43.42,286.05 -6.56,360.08 -71.55,-31.09 -27.46,-35.49 -62.93,-97.46 -28.9,8.96 -26.97,14.09 -49.68,42.46 -1.44,1.8 -5.03,9.96 -6.07,7.91 -1.07,-2.07 -3.73,5.78 -6.15,8.14zm129.62 92.56c87.16,-35.02 71.65,-90.5 71.65,-200.47 0,-147.99 15.58,-159.52 -60.94,-254.73 -67.19,-7.24 -91.7,3.06 -123.99,44.69 -46.98,60.61 -24.89,70.26 -44.75,139.11 -95.74,-76.59 -10,-213.92 -179.54,-186.54 -84.29,13.61 -95.29,184.39 -102.26,268.74 -12.62,152.96 33.58,211.28 157.94,163.22 88.76,-34.31 49.81,38.96 132.66,25.59 58.31,-9.4 11.63,-24.98 68.83,-22.1 53.09,2.67 4.99,22.24 80.4,22.49z"/>
   <path class="fil15" d="M14085.7 7925.89c-20.76,-32.79 -44.88,-83.37 -28.54,-139.63 11.25,-38.69 46.48,-91.8 102.98,-64.56 52.3,25.2 83.16,219.06 -74.44,204.19zm-80.65 63.7l13.97 16.74c155.95,1.04 178.2,28.78 256.5,-84.18 128.98,-186.02 -148.6,-423.94 -282.43,-222.87 -26.37,39.62 -37.26,74.3 -37.13,138.3 0.19,95.31 33.02,74.11 49.09,152z"/>
   <path class="fil13" d="M8807.32 8684.72c-29.22,-11.55 -16.57,-1.07 -24.38,-37.86l3 -176.52c-0.69,-103.47 -10.34,-147.23 28.49,-222.7 -87.09,55.32 -60.27,101.83 -57.75,210.97 5.16,224.18 -66.12,299.47 234.45,285.94 118.3,-5.33 139.48,18.24 212.8,-20.88 24.65,-13.15 -23.7,3.72 27,-14.51 45.57,-44.55 -5.12,-77.56 79.77,-78.61 39.1,60.11 17.63,108.19 -15.21,154 -34.31,47.85 -72.03,52.22 -145.8,52.91 -477.65,4.5 -478.19,27.52 -477.48,-308.5 0.13,-63.84 -3.15,-136.83 0.03,-199.35 6.52,-128.45 32.82,-121.63 43.87,-146.65 13.24,-23.4 7.08,-12.52 27.29,-31.56 7.19,-6.78 13.44,-6.91 33.24,-25.34 -178.57,28.06 -143.92,201.85 -144.02,379.45 -0.08,169.07 -23.37,319.98 139.24,351.45 64.67,12.52 426.08,11.33 478.37,-3.55 129.61,-36.86 172.12,-245.74 25.77,-285.34 -98.77,83.18 -19.72,160.45 -182.57,158.13 -66.68,-0.96 -278.71,29.11 -286.11,-41.49z"/>
   <path class="fil19" d="M22900.87 7303.56c-59.19,8.12 -120.89,-64.26 -151.08,-111.1 -4.06,2.35 -9.33,0.98 -11.8,7.76 -0.36,0.98 -92.76,67.4 -44.63,85.98 -7.7,-44.73 -55.04,-370.73 60.98,-285.36 32.39,23.83 11.61,7.57 19.45,32.03 5.16,16.13 5.92,30.88 8.8,47.11 20.8,117.06 46.86,74.22 114.05,123.78l5.77 84.83c2.41,-2.37 5.08,-10.22 6.15,-8.14 1.04,2.05 4.63,-6.11 6.07,-7.91 22.71,-28.36 20.78,-33.5 49.68,-42.46 35.46,61.97 -8.62,66.37 62.93,97.46 49.98,-74.03 37.13,-277.07 6.56,-360.08 -137.8,-5.79 -107.92,124.41 -142.55,160.08 -3.01,1.47 -7.97,-0.87 -9.64,2.73 -0.32,0.72 -41.35,18.2 -65.72,-30.22 -12.56,-24.91 -15.84,-73.03 -20.1,-106.97 -39.66,-25.94 -46.17,-40.78 -107.81,-39.92 -44.13,62.05 -52.82,244.54 -43.39,348.93l37.77 26.97c109.49,-35.32 7.8,-96.27 199.27,20l19.26 -45.5z"/>
   <path class="fil8" d="M15522.77 7701.06c-2.55,74.28 39.87,35 32.09,133.94 -3.94,50.3 -29.28,101.34 -73.76,119.41 -19.25,-24.13 -9.2,2.22 -17.67,-35.27 -5.68,-25.15 -4.2,-7.91 -1.93,-34.31 2.49,-28.96 13.61,-27.3 13.68,-71.74 0.11,-74.04 -41.63,-108.68 -100.3,-92.55 -4.77,1.32 -15.25,5.78 -21.13,9.98l-15.05 15.93c-24.59,33.83 -15.81,95 -15.68,149.41 71.33,39.3 85.22,44.28 101.58,102.59 -150.76,9.47 -155.87,46.74 -145.32,-324.91 47.39,-19.28 71.6,-43.58 129.67,-24.54 4.36,1.44 55.89,22.5 56.72,22.85l32.7 15.95c2.6,1.35 5.84,3.16 8.16,4.4 2.33,1.26 6.28,3.39 8.16,4.42 1.88,1.01 5.25,3.24 8.08,4.43zm0 0l1.39 -37.76c-65.65,-26.2 -57.78,-55.75 -134.6,-62 -223.52,-18.18 -165.08,346.81 -135.76,389.95 29.97,44.08 103.87,41.1 159.83,36.06 86.25,-7.78 83.36,-9.96 118.19,-69.65 32.69,-56.03 54.43,-42.01 55.72,-131.91 1.21,-85.33 -15.28,-115 -64.76,-124.68z"/>
   <path class="fil17" d="M12299.17 5799.65c1.46,-73.52 -71.22,-230.01 -119.67,-288.4l-28.04 -35c-95.44,50.81 -45.03,42.93 -79.73,134.6 -20.24,53.44 -68,51.5 -68.32,151.41 -0.31,93.7 43.74,83.9 125.18,82.8 134.06,-1.81 89.16,8.67 170.58,-45.41z"/>
   <path class="fil16" d="M14942.98 5661.75c24.64,96.81 -38.09,250.21 28.38,350.01 49.98,75.04 112.77,136.04 201.98,167.78 0.54,-101.16 -152.36,-139.46 -117.28,-401.51 5.94,-44.43 10.72,-116.33 43.2,-143 2.43,-43.89 9.67,-39.23 39.51,-74.61 23.73,-28.13 37.43,-39.44 41.97,-83.48 -93.92,6.33 -134.15,72.06 -186.94,131.7 -11.74,13.28 -10.88,11.84 -21.53,22.81 -2.29,2.35 -9.04,9.17 -11.29,11.48l-11.96 12.26c-1.31,1.36 -3.94,4.46 -6.04,6.56z"/>
   <path class="fil10" d="M22945.98 7992.48c-172.56,6.69 -223.3,-219 -115.63,-329.23 54.24,-55.54 53.95,-45.76 137.26,-27.42 -29.43,117.12 -114.29,42.64 -116.9,166.56 -0.79,37.58 0.46,33.41 14.36,56.36l31.94 37.07c54.13,51.68 50.37,-0.19 48.98,96.66zm-74.48 -202.15c44.82,-33.59 126.58,-18.96 155.27,-41.54 27.02,-21.28 40.63,-108.41 -10.08,-153.13 -1.68,-1.46 -4.19,-3.83 -5.95,-5.22l-12.69 -9.29c-25.78,-13.97 -91.54,-15.27 -122.58,-8.86 -50.46,10.44 -11.5,-2.45 -35.81,18.72 -1.68,1.46 -3.98,4.03 -5.59,5.61l-59.35 66.87c-142.64,156.28 3.91,334.05 90.18,358.46 193.77,54.84 200.31,-112.53 161.84,-149.54 -44.8,-17.7 -144.24,28.18 -155.25,-82.07z"/>
   <path class="fil8" d="M8716.11 8182.96c80.11,-19.55 539.25,-58.52 589.48,29.44 7.77,13.6 16.62,69.86 2.89,101.89 -10.85,25.34 -10.44,18.67 -23.89,31.59 -74.27,-61.87 -0.31,-143.2 -236.85,-140.17 -138.56,1.79 -210.6,-20.33 -301.57,66.75 -9.31,105.74 -24.56,433.89 37.35,473.21 57.55,36.57 158.78,22.89 230.19,21.2 93.63,-2.21 190.63,26.07 217.21,-57.72 -50.7,18.24 -2.35,1.36 -27,14.51 -73.32,39.12 -94.5,15.55 -212.8,20.88 -300.57,13.53 -229.3,-61.76 -234.45,-285.94 -2.52,-109.13 -29.34,-155.65 57.75,-210.97l380.99 4.96c34.41,45.65 51.23,191.57 133.23,124.77 57.83,-47.13 25.06,-174.69 -34.8,-212.99 -113.82,-72.84 -357.74,-48.78 -517.21,-38.31 -19.8,18.43 -26.05,18.56 -33.24,25.34 -20.21,19.04 -14.05,8.16 -27.29,31.56z"/>
   <path class="fil7" d="M20661.11 7122.94l78.65 14.78c30.09,-69.71 13.43,-115.42 68.75,-155.81 61.33,48.84 30.9,138.46 11.56,164.05 -31.58,41.78 -26.38,2.95 -39.63,62.66 -6.11,27.52 -5.8,75.69 -10.36,108.79 -36.18,24.85 -54.69,31.86 -115.41,22.65 -30.59,-53.46 -43.02,-161.82 -94.17,-254.76 -26.47,-48.09 -26.07,-120.36 42.65,-81.87 45.8,25.67 40.28,72.26 57.96,119.5zm-21.9 261.18l139.19 1.31c21.72,-37.61 26.33,-70.57 39.1,-121.03 15.1,-59.71 40.17,-68.43 56.44,-109.38 34.9,-87.74 29.71,-217.74 -76.72,-225.52 -63.87,31.99 -56.19,85.05 -92.54,137.13 -65.33,-169.68 -239.78,-196.03 -212.15,-16.41 8.53,55.54 65.28,92.06 78.89,166.41 22.28,121.63 16.87,84.33 67.79,167.49z"/>
   <path class="fil8" d="M21698.79 6195.41c4.55,-76.08 -21.1,-124.69 -22.33,-222.21 -1.31,-103.3 -10.45,-369.32 21.81,-450.51 43.73,-110.05 -36.71,-83.02 -109.38,-63.61l9.3 302.94c1.92,125.74 -23.24,365.45 3.55,465.09 97.57,9.56 42.19,-1.34 97.05,-31.7z"/>
   <path class="fil8" d="M24891.8 6151.38c89.72,0.56 133.81,-53.01 175.76,-116.25 52.4,-79.02 50.08,-122.65 45.03,-250.17 -7.08,-178.39 -105.07,-298.67 -283.19,-300.84 35.18,98.21 342.28,179.02 107.55,580.29 -20.77,35.5 -39.2,54.85 -45.15,86.98z"/>
   <path class="fil7" d="M24540.74 7958.83c-32.94,-16.65 -21.66,-14.41 -40.78,-40.3 -38.59,-52.26 3.15,-27.68 -45.79,-36.14 -55.93,42.69 -3.61,84.94 -80.79,118.78 -40.04,-59.48 -32.61,-90.81 -31.87,-175.66 0.55,-64.19 -14.13,-153.87 21.39,-199.74l17.21 -9.11c52.1,-13.43 74.19,2.67 107.19,55.89l34.59 45.83c2.51,-2.44 5.81,-10.04 6.91,-7.96 1.08,2.04 5.15,-5.97 6.56,-8l11 -15.97c2.53,-4.29 11.54,-25.77 13.78,-31.03l93.02 8.11c20.53,52.62 -13.85,102.65 -0.93,197.28 13.64,99.83 -8.31,136.51 -104.56,137.63l-6.93 -39.62zm-188.15 67.51c108.05,3.69 95.26,-29.26 115.17,-78.63l8.99 -18.14c18.74,31.27 51.31,87.48 91.24,94.95 167.81,31.37 134.61,-177.67 124.39,-410.06 -67.13,-19.39 -118.79,-49.88 -160.93,9.91 -60,-26.48 -5.28,-2.26 -44.81,-32.39 -39.05,-29.77 -63.16,-30.45 -134.04,-26.52 -9.13,14.19 -1.63,5.07 -15.31,21.48 -43.47,52.04 -27.21,-1.2 -34.41,62.62 -4.92,43.62 0.97,106.32 0.31,152.52 -2.03,138.7 -9.17,133.31 49.42,224.25z"/>
   <path class="fil16" d="M22256.25 5688.54c-127.32,-20.68 -55.23,-185.16 -127.18,-182.21 -8.2,0.35 -154.76,119.99 97.77,317.96 38.1,29.87 102.47,78.85 139.65,113.38 68.11,63.26 13.53,131.07 92.3,167.42 132.6,-206.41 -174.59,-322.44 -202.55,-416.55z"/>
   <path class="fil10" d="M23831.42 7061.39c44.46,-17.92 4.78,-14.08 35.87,-67.22l49.61 4.28c15.04,58.31 23.65,287.41 -0.41,326.79 -16.5,10.24 17.2,4.17 -28.87,11.85 -25.38,4.24 -30.82,4.52 -54.14,-14.14 -23.64,-18.93 -29.16,-41.58 -35.98,-68.92l-6.49 -28.21c-32.5,-26.61 -14.17,29.44 -25.34,-25.11 -37.7,5.22 -51.94,20.33 -64.12,51.28 -25.17,63.99 12.8,66.05 -74.52,59.11 -35.69,-90.45 8.26,-97.15 11.62,-177.24 4.47,-105.88 -10.46,-70.59 25.44,-165.8 110.52,-7.88 88.67,87.52 164.44,124.35 14.73,-16.01 1.55,-4.09 2.91,-31.05zm0 0c-33.7,-12.89 -56.31,-110.07 -110.91,-127.12 -120.19,-5.18 -118.75,61.87 -123.27,176.02 -6.48,163.32 -61.08,290.8 111.45,273.7 58.68,-5.81 8.73,12.95 52.94,-33.84 57.75,-61.13 -31.59,6.96 15.33,-15.06 63.81,34.19 40.37,55.46 150.17,47.54 24.52,-39.06 39.87,-261.89 37.91,-318.73 -4.96,-142.91 -162.32,-166.91 -133.62,-2.51z"/>
   <path class="fil1" d="M11304.58 5738.52l11.91 8.46c60.94,18.79 47.54,29.22 124.98,108.93 67.03,68.99 29.9,116.94 105.85,135.76 31.14,-270.85 -212.67,-316.38 -355.95,-462.28 -140.35,-142.92 -59.86,-125.56 -141.18,-149.06 -72.63,186.24 207.48,278.71 254.39,358.18z"/>
   <path class="fil15" d="M16050.13 7171.27c20.02,-55.86 24.29,1.66 32.01,-108.51 -104.18,-37.56 -93.78,-47.72 -119.37,-56.68 -47.59,-16.69 -89.12,0.79 -112.86,30.12 -34.06,42.1 -19.88,85.31 -17.24,144.79 2.74,61.91 -12.28,87.22 -8.16,135.37 107.65,22.74 36.18,-51 141.38,-26.5 48.27,11.23 43.34,53.8 94.42,70.98l10.09 -67.39c-32.46,-29.05 -34.38,-6.44 -47.95,-45.68 -12.81,-37.07 -2.24,-62.05 27.67,-76.51z"/>
   <path class="fil15" d="M11978.02 7340.14c64.61,-70.08 -35.09,-195.14 -36.57,-199.68 -11.22,-34.65 8.16,-151.09 -106.02,-148.67 -49,62.95 -42.73,63.73 -66.18,154.67 -17.25,66.88 -73.81,105.34 -58.5,174.41 25.2,113.65 93.89,-112.36 202.86,2.59 59.27,62.52 64.32,16.76 64.4,16.69z"/>
   <path class="fil7" d="M12106.32 7888.94c-23.62,41.72 -12.77,113.69 -77.33,93.18 -47.7,-15.16 -27.35,-84.25 -26.28,-144.87 2.03,-114.21 -23.29,-221.15 107.72,-214.64 17.28,26.93 30.51,76.39 52.32,104.22 69.83,4.85 40.38,2.7 76.89,-33.05 60.37,-59.12 71.59,-10.13 71.67,-10.04 21.72,43.04 15.82,269.61 -3.26,316.02 -191.18,42.73 -76.27,-103.28 -201.72,-110.81zm45.14 78.28c30.76,53.57 7.8,56.86 78.2,66.95 47.67,6.85 89.37,-2.43 113.78,-32.86 3.81,-4.74 101.02,-421.52 -76.54,-395.67 -93.62,13.63 -16.38,52.53 -90.7,46.16 -30.1,-2.58 -43.66,-43.41 -61.68,-69.3 -112.43,-3.03 -139.56,29.47 -140.32,148.78 -0.53,84.37 -12.48,214.63 7.4,282.69 114.83,42.93 114.65,-7.02 169.86,-46.75z"/>
   <path class="fil19" d="M12831.27 7066.35c10.7,-104.96 -70.92,-151.63 -127.62,-87.11 -25.77,29.33 -5.08,13.03 -39.94,41.72 -34.19,28.15 -76.35,70.39 -89.16,117.25 -24.45,89.35 41.91,252.78 187.2,246.5 67.4,-2.91 57.99,-26.24 58.71,-89.43 -123.91,-29.79 -144.6,-11.43 -113.56,-196.37l124.35 -32.56z"/>
   <path class="fil15" d="M14710.98 7986.45c-10.07,-32.93 -7.24,-47.57 -16,-76.74 -15.72,-52.39 -13.94,-8.02 -25.83,-72.48 15.8,-40.64 37.18,-73.92 29.1,-140.31 -16.26,-13.22 -96.43,-53.8 -112.17,-57.34 -53.47,-12.02 -73.53,16.89 -110.81,43.9 -2.85,89.51 -10.36,211.48 13.87,281.39 58.46,-11.5 47.66,-53.34 123.89,-57.58l39.59 75.37 58.36 3.8z"/>
   <path class="fil16" d="M15547.18 5599.56c77.07,24.58 90.64,158.26 89.83,244.55 -1.74,190.32 -72.61,152.8 -81.84,263.33 176,5.63 211.48,-280.22 185.76,-346.31 -39.99,-102.75 -22.9,-102.54 -92.88,-184.38 -35.06,-40.99 -117.99,-98.2 -177.42,-94.96 15.4,68.32 76.29,51.9 76.55,117.79z"/>
   <path class="fil7" d="M13026.72 7361.25c-48.76,-79.83 -27.58,-66.98 -28.19,-180.59 -0.54,-96.38 -25.13,-127.54 44.61,-175.45 66.99,28.87 51.47,51.43 101.58,94.72 59.67,-21.26 43.75,-34.31 75.85,-86.06l82.59 7.42c9.29,23.79 77.73,372.89 -66.2,338.3 -49.39,-11.88 -36.98,-61.88 -54.96,-110.88l-46.63 -8c-30.44,71.86 -10.34,116.74 -108.63,120.55zm117.99 -21.11l16.98 21.88c12.74,14.57 0.19,4.24 23.37,23.91 62.63,53.15 143.97,-17.27 152.83,-27.85 35.75,-42.78 22.02,-244.51 17.34,-318.11 -4.32,-19.04 -37.66,-72.41 -108.74,-70.54 -71.69,1.88 -75.11,49.59 -111.1,93.4 -13.49,-54.59 -51.93,-129.96 -129.05,-85.5 -64.85,37.41 -50.96,366.27 -16.76,400.37 62.14,61.97 121.29,-9 155.12,-37.57z"/>
   <path class="fil15" d="M15344.55 7037.49c-39.53,159.95 -10.33,341.94 159.89,328.89 153.31,-11.74 161.64,-247.03 126.98,-332.8l-52.84 1.36c-45.17,101.41 35.33,240.89 -97.48,251.35 -43,-35.63 -56.83,-71.43 -55.1,-140.44 2.41,-95.83 13.03,-104.69 -81.45,-108.36z"/>
   <path class="fil16" d="M15344.55 7037.49c94.48,3.67 83.86,12.53 81.45,108.36 -1.73,69.02 12.09,104.81 55.1,140.44 132.8,-10.45 52.31,-149.94 97.48,-251.35l52.84 -1.36c34.66,85.77 26.33,321.06 -126.98,332.8 -170.22,13.05 -199.42,-168.94 -159.89,-328.89zm293.6 -54.83l-55.46 -1.14c-85.39,100.84 -29.57,144.71 -53.6,226.88 -0.67,2.3 -12.17,27.39 -14.39,30.27 -18.29,23.65 0.78,14.47 -33.47,23.35 -41.37,-135.69 57.35,-280.91 -134.06,-278.35 -46.96,77.81 -44.66,185.88 -33.07,290.73 4.88,44.13 25.53,71.69 60.06,99.01 103.83,82.14 138.32,62.23 215.85,2.28 31.98,-24.72 63.43,-36.6 71.64,-89.36 15.4,-99 13.37,-232.04 -23.5,-303.68z"/>
   <path class="fil15" d="M16240.22 7790.33c-5.12,-85.07 6,-36.6 26.4,-89.11 60.74,-156.27 -141.72,-32.18 -178.53,-8.6 -4.11,142.66 39.74,85.09 113.3,203.23 -44.58,52.91 -72.89,26.31 -89.01,94.61 50.75,26.85 103.44,42.3 164.68,6.05 67.03,-39.69 55.5,-62.07 49.42,-158.9 -38.82,-27.13 -41.74,-24.24 -86.25,-47.28z"/>
   <path class="fil16" d="M20447.91 5515.19c46.24,19 17.22,34.81 55.74,59.13 75.11,47.4 48.74,-63.42 216.44,149.85l164.34 194.14c47.93,44.6 19.5,44.46 91.68,53.56 -3,-100.56 -54.07,-108.73 -96.33,-154.62 -20.21,-21.95 -63.1,-94.34 -96.02,-134.91 -72.74,-89.57 -136.92,-160.28 -212.27,-244.19l-119.31 9.63 -4.26 67.41z"/>
   <path class="fil15" d="M13486.07 7980.79c31.97,-72.65 -4.06,-68.42 -2.28,-143.28 1.61,-67.65 23.09,-61.57 9.89,-152.31 -22.82,-13.25 -84.44,-31.85 -112.11,-33.58 -158,-9.89 -98.78,141.54 -97.22,186.83 1.91,55.33 -19.11,55.28 -7.15,132.34 84.89,-33.28 14.17,-79.68 155.07,-68.63 18.68,37.31 11.16,60.41 53.8,78.63z"/>
   <path class="fil19" d="M19855.85 7884.19l-7.48 -23.79c-40.85,-18.94 -13.52,-3.13 -41.26,-24.48 -3.87,-113.01 73.98,-117.79 128.44,-133.02l-0.21 -61.09c-151.97,-102.48 -236.82,69.17 -243.96,125.68 -17.65,139.92 87.02,267 207.5,226.17 -1.57,-133.42 -16.41,-5.18 -43.03,-109.46z"/>
   <path class="fil13" d="M24178.69 6998.96c36.01,-16.87 51.02,-17.71 88.8,-1.51 6.73,6.73 34.27,104.74 -82.56,103.3 -4.08,-13.88 -13.92,-39.54 -15.26,-50.75l9.02 -51.04zm92.29 342.7c70.75,-99.61 10.09,-141.16 39.61,-262.47 18.29,-75.23 32.65,-27.49 29.1,-108.63 -82.17,-61.08 -316.4,-55.81 -209.75,89.06 106.26,144.35 -84.13,302.15 141.04,282.05z"/>
   <path class="fil15" d="M20661.11 7122.94c-17.69,-47.25 -12.17,-93.83 -57.96,-119.5 -68.72,-38.5 -69.12,33.78 -42.65,81.87 51.15,92.93 63.58,201.29 94.17,254.76 60.72,9.21 79.22,2.2 115.41,-22.65 4.56,-33.1 4.25,-81.27 10.36,-108.79 13.25,-59.71 8.05,-20.88 39.63,-62.66 19.35,-25.59 49.78,-115.21 -11.56,-164.05 -55.32,40.39 -38.66,86.1 -68.75,155.81l-78.65 -14.78z"/>
   <path class="fil15" d="M12196.56 7039.98l-4.05 283.17c70.84,17.78 41.75,-17.02 94.39,-52.04 64.15,-14.39 49.85,96.31 135.44,38.91 -21.93,-32.89 -56.62,-44.42 -52.37,-103.93 4.4,-61.62 56.6,-68.44 38.73,-126.68 -8.36,-27.21 -65.47,-61.02 -93.28,-70.33 -56.68,-18.96 -86.41,11.35 -118.87,30.89z"/>
   <path class="fil13" d="M24022.27 7710.69c15.81,55.94 56.99,46.98 45.49,112.25 -5.97,33.84 -44.05,64.56 -65.07,82.53 -121.47,-93.33 -65.24,-173.39 19.58,-194.78zm0 0c-3.19,-13.82 2.84,-10.59 -9.36,-37.6 -33.95,13.59 -80.12,54.49 -89.85,88.32 -18.92,65.7 10.22,100.24 11.85,169.55 -58.76,-8.81 -74.52,-8.81 -85.4,-80.67 -12.37,-81.69 -4.12,-128.77 50.18,-165.87l26.09 -17.82c64.52,-47.89 116.99,-39.91 185.75,11.02 7.24,5.36 13.84,9.42 19.53,14.44 28.13,24.8 36.06,54.1 36.13,97.94 0.07,42.51 -14.96,89.08 -32.02,114.98 -28.1,42.62 -53.5,46.03 -97.86,48.33 12.46,-59 9.85,-47.76 37.82,-87.71 53.48,-76.43 12.82,-140.62 -52.86,-154.91zm-190.22 173.44c33.41,190.6 423.66,177.08 351.13,-149.72 -38.54,-173.72 -298.08,-150 -343.63,-31.13 -15.35,40.06 -15.52,135.11 -7.5,180.85z"/>
   <path class="fil10" d="M21217.66 7776.88c56.94,45.3 84.41,24.26 109.09,118.97 -74.72,77.19 -84.08,100.46 -171.3,95.52 0.43,-90.98 47.66,-96.99 9.41,-160.09 -39.78,-65.58 -67.02,-10.07 -64.32,-149.04 44.79,-35.06 63.3,-61.58 136.28,-43.46 -12.88,50.99 -24.8,70.96 -19.16,138.1zm-151.93 227.15c53.5,18.14 158.29,41.37 212.93,3.92l65.64 -59.32c14.49,-20.34 20.72,-63.49 12.91,-95.7 -18.62,-76.67 -113.48,-57.17 -96.01,-142.02 18.21,-88.39 86.29,-17.57 -12.5,-137.49 -60.82,-2.7 -50.72,-9.07 -92.33,16.02 -114.66,69.15 -104.83,95.27 -91.7,216.57 60.9,38.26 74.63,-2.65 74.81,78.13l-18.44 10.47c-68.08,29.13 56.99,-15.09 -18.77,7.27 -15.01,4.43 -21.53,2.98 -37.14,3.6l0.6 98.56z"/>
   <path class="fil13" d="M12147.66 7771.48c98.35,26.13 179.57,51.73 146.13,192.9 -58.19,94.9 -119.99,-81.24 -120.15,-81.5 -35.48,-58.26 -93.98,-56.89 -121.69,-70.18 -25.94,-69.35 -50.28,-148.07 54.37,-147.56 27.87,37.65 31.01,61.18 41.34,106.34zm-41.34 117.45c125.46,7.54 10.54,153.54 201.72,110.81 19.09,-46.41 24.98,-272.98 3.26,-316.02 -0.08,-0.08 -11.29,-49.07 -71.67,10.04 -36.52,35.75 -7.07,37.9 -76.89,33.05 -21.81,-27.83 -35.05,-77.28 -52.32,-104.22 -131,-6.51 -105.69,100.43 -107.72,214.64 -1.08,60.63 -21.42,129.71 26.28,144.87 64.56,20.51 53.71,-51.46 77.33,-93.18z"/>
   <path class="fil16" d="M20351.92 7309.64c-28.86,27.9 -78.89,47.63 -131.23,22.15 -45.37,-22.11 -42.95,-79.43 -42.43,-139.14 1.17,-134.18 -6.35,-240.13 135.37,-200.93 -9.6,69.82 -25.09,31.21 -20.02,142.15 3.95,86.5 -12.83,68.81 -26.18,128.8l84.49 46.97zm48.66 -11.73l-62.11 -41.63c-1.67,-1.13 -5.02,-3.35 -7.35,-5.26 39.52,-78.16 19.54,-53.43 23.07,-153.31 3.57,-101.24 44.79,-33.08 43.39,-128.08 -31.68,-26.88 -38.39,-34.65 -96.61,-37.26 -164.73,-7.39 -166.64,115.09 -167.85,248.62 -2.61,287.57 257.37,220.19 267.44,116.91z"/>
   <path class="fil10" d="M20091.76 7837.23c-20.87,-89.39 88.49,-197.33 143.03,-212.57 259.44,-72.55 284.56,337.23 54.74,371.37 -89.41,13.29 -182.53,-93.54 -197.76,-158.79zm399.11 34.24c76.29,-117.35 -68.93,-248.39 -142.08,-283.97 -62.08,-30.2 -126.33,-25.51 -176.04,12.37 -43.54,33.19 -83.67,68.06 -98.28,117.02 -14.22,47.68 -15.24,162.32 7.94,208.33 11.53,22.85 81.95,88.32 117.38,96.43 176.76,40.49 230.32,-56.75 291.07,-150.18z"/>
   <path class="fil7" d="M19855.85 7884.19c26.62,104.29 41.46,-23.96 43.03,109.46 -120.47,40.82 -225.15,-86.26 -207.5,-226.17 7.13,-56.51 91.98,-228.17 243.96,-125.68l0.21 61.09c-54.47,15.23 -132.31,20.01 -128.44,133.02 27.74,21.35 0.41,5.54 41.26,24.48 -1.76,-68.6 -29.63,-79.78 35.06,-92.79 66.27,-13.33 54.92,-0.5 99.73,-36.19 21.87,-189.98 -139.78,-220.58 -240.73,-111.17 -51.69,56.02 -121.93,139.6 -93.77,224.42 18.9,56.94 73.6,158.53 144.89,182 50.06,16.5 96.61,5.79 145.8,-1.91 6.81,-11.51 49.28,-54.05 29.57,-106.06 -16.18,-42.67 17.13,0.35 -18.77,-24.45 -22.4,-15.47 -61.4,-9.96 -94.3,-10.06z"/>
   <path class="fil7" d="M12706.92 7098.9c-31.05,184.95 -10.36,166.59 113.56,196.37 -0.72,63.19 8.69,86.52 -58.71,89.43 -145.29,6.27 -211.65,-157.16 -187.2,-246.5 12.81,-46.86 54.96,-89.09 89.16,-117.25 34.86,-28.69 14.17,-12.39 39.94,-41.72 56.7,-64.52 138.32,-17.85 127.62,87.11l-124.35 32.56zm133.04 331.1c16.34,-49.3 41.5,-105.23 40.66,-143.81 -79.4,-51.14 -58.98,6.33 -159.48,-70.93 -5.67,-123.2 60.23,-75.87 151,-141.58 0.52,-52.65 -21.44,-112.54 -46.55,-145.7 -116.07,-12 -112.9,-5.26 -189.98,64.03 -46.75,42.04 -97.94,108.59 -99.58,188.54 -1.7,83.63 65.06,179.62 91.2,197.28l82.08 53.95c34.82,13.13 93.77,3.23 130.66,-1.77z"/>
   <path class="fil16" d="M14239.39 7263.8c46.63,33.94 54.13,18.44 55.27,90.91 -60.84,17.27 -130.55,16.04 -144.07,-58.28 -5.83,-31.96 -2.43,-208.41 2.21,-244.73 17.17,-36.94 154.59,-99.22 133.39,-24.25 -0.59,2.11 -2.48,5.32 -3.31,7.57 -30.17,82.88 -12.77,54.8 -12.19,123.49 0.37,43.2 -21.83,61.57 -31.31,105.28zm57.34 -1.07c4.68,-43.7 19.18,-53.31 28.15,-98.8 9.4,-47.64 6.84,-53.5 18.98,-96.56 61.35,-217.61 -185.65,-133.74 -224.06,-21.69 -18.65,54.37 -7.1,163.86 -7.21,228.78 -0.16,112.86 133.04,169.38 220.56,132.56 31.74,-88.13 14.43,-101.53 -36.43,-144.3z"/>
   <path class="fil19" d="M22505.52 7991.2c22.89,-43.39 72.22,-63.94 85.7,-109.05 6.91,-23.07 16.56,-174.48 5.93,-193.16 -15.41,-27.07 -51.18,-33.83 -68.68,-1.56 -32.18,59.33 50.65,125.75 -72.09,243.2 -26.85,-13.22 -76.21,-86.92 -78.37,-128.49 -3.83,-73.71 54.61,-146.95 -64.87,-124.38 -27.78,66.23 -14.88,185.38 12.49,236.79 42,78.93 85.41,78.92 179.89,76.65z"/>
   <path class="fil7" d="M22107.11 7766.86l9.64 164.77c-14.69,69.07 2.28,15.2 -21.54,45.31 -104.4,-4.53 -29.09,-55.25 -92.28,-64.81 -38.87,-5.89 -28.22,37.48 -65.75,71.22 -82.24,-27.31 -84.7,-44.52 -81.81,-145.79 2.72,-95.01 -24.78,-134.1 31.29,-193.46 72.3,-76.55 256.14,-31.05 237.53,86.57 -8.67,54.7 -6.26,26.17 -17.08,36.19zm43.54 23.47c23.43,-85.72 14.15,-108.79 -34.71,-162.3 -32.93,-36.05 -79.49,-63.63 -144.95,-60.67 -64.07,2.89 -101.83,44.96 -131.72,86.61 -35.62,49.65 -53.91,291.93 29.34,348.41 79.37,53.85 82.27,-14.93 152.95,2.53 247.93,61.19 105.42,-127.91 129.09,-214.59z"/>
   <path class="fil13" d="M22285.55 7001.91c35.44,-30.78 60.96,-9.56 66.39,-7.33 0.87,3.21 1.04,7.65 1.04,9.96l0.2 19.06c-0.05,0.4 -6.41,24.54 -6.93,26.31 -32.11,109.35 2.98,47.97 21.26,111.21 14.85,51.37 -2.48,40.13 -11.49,53.46 -74.81,110.74 -20.54,83.39 -102.85,83.39l0 -246.28 32.38 -49.78zm35.75 342.72c55.63,-93.89 10.56,-68.49 57.66,-104.16 39.39,-29.83 73.11,-18.35 98.34,-73.66 14.68,-32.18 21.46,-105.84 5.63,-143.31 -8.16,-19.29 -66.19,-73.16 -89.19,-81.18 -188.55,-65.76 -172.02,205.97 -167.64,321.49 3.08,81.16 19.8,82.77 95.2,80.81z"/>
   <path class="fil1" d="M24540.74 7958.83c3.29,0.58 8.12,-1.61 9.83,2 1.69,3.53 7.48,1.48 9.77,1.55 3.76,0.09 16.22,19.98 47.83,-12.95 21.31,-22.22 19.41,-53.98 13.92,-84.75 -18.4,-103.08 0.25,-85.67 -2.55,-174.94 -94.82,-0.39 -25.33,28.18 -97.65,73.5 -51.99,-40.26 -48.67,-98.87 -97.22,-117.53 -47.59,-18.28 -41.38,-0.76 -50.19,4.76 -25.33,41.06 -14,258.69 2.17,303.29 32.1,-36.14 21.8,-82.7 42.17,-129.39l57.9 -1.94c24.37,34.96 61.04,95.18 64.03,136.39z"/>
   <path class="fil15" d="M21021.24 7002l-3.93 237.94c0.26,9.97 0.63,24.79 1.97,34.41 15.37,109.83 140.96,109.51 185.78,35.29 -21.01,-34.76 -30.45,-30.2 -69.45,-47.64 4.91,-53.13 15.1,-50.93 16.3,-104.43 3.46,-154.28 34.82,-187.84 -37.98,-193.95 -43.63,-3.66 -66.8,21.45 -92.69,38.37z"/>
   <path class="fil10" d="M11978.02 7340.14c-0.08,0.07 -5.13,45.83 -64.4,-16.69 -108.97,-114.95 -177.66,111.06 -202.86,-2.59 -15.31,-69.07 41.25,-107.53 58.5,-174.41 23.45,-90.94 17.17,-91.71 66.18,-154.67 114.18,-2.43 94.8,114.02 106.02,148.67 1.48,4.54 101.18,129.6 36.57,199.68zm4.13 68.16c142.95,-132.16 -9.24,-277.27 -19.1,-312.39 -13.57,-48.33 7.12,-43.52 -25.98,-90.05 -33.86,-47.57 -98.15,-78.09 -146.89,-12.31 -97.24,131.19 -1.97,100.16 -99.41,212.93 -51.15,59.2 -41.59,147.94 -5.36,177.22 61.99,50.11 120.46,-35.62 152.15,-40.74 78.51,-12.69 27,52.48 144.6,65.33z"/>
   <path class="fil16" d="M14518.76 7098.54c104.8,-33.24 23.46,-116.03 227,-102.86l-3.27 67.74c-82.52,25.78 -128.8,12.53 -134.39,117.65 -7.6,143.07 120.87,69.14 79.87,152 -21.66,44.34 27.07,20.97 -41.5,29.23 -52.51,6.33 -86.96,-61.95 -99.76,-79.86 -46.35,-64.83 -28.26,-92.03 -25.06,-184.89 -16.24,9.13 -31.52,2.05 -38.41,59.06 -1.19,9.74 1.63,71.3 3.67,81.83 7.08,36.54 32.01,71.97 54.02,98.03 80.65,95.46 121.86,92.88 202.63,85.51 125.59,-195.36 -40.79,-136.61 -82.88,-175.24 -27.18,-24.97 -25.73,-81.4 -5.11,-117.12 22.09,-38.29 59.35,-30.77 114.17,-42.89 12.81,-74.06 6.24,-91.38 -19.8,-142.56 -88.57,-6.77 -125,-0.97 -195.09,82.6 -29.23,34.85 -25.94,23.37 -36.1,71.77z"/>
   <path class="fil15" d="M15522.77 7701.06c-2.83,-1.19 -6.2,-3.42 -8.08,-4.43 -1.88,-1.02 -5.83,-3.16 -8.16,-4.42 -2.32,-1.24 -5.56,-3.05 -8.16,-4.4l-32.7 -15.95c-0.83,-0.35 -52.36,-21.41 -56.72,-22.85 -58.07,-19.04 -82.28,5.26 -129.67,24.54 -10.54,371.64 -5.44,334.38 145.32,324.91 -16.36,-58.31 -30.25,-63.3 -101.58,-102.59 -0.13,-54.41 -8.92,-115.57 15.68,-149.41l15.05 -15.93c5.88,-4.21 16.36,-8.67 21.13,-9.98 58.67,-16.13 100.41,18.5 100.3,92.55 -0.07,44.45 -11.19,42.79 -13.68,71.74 -2.27,26.41 -3.75,9.17 1.93,34.31 8.47,37.48 -1.58,11.13 17.67,35.27 44.48,-18.07 69.81,-69.11 73.76,-119.41 7.79,-98.94 -34.63,-59.67 -32.09,-133.94z"/>
   <path class="fil16" d="M16914.45 5808.98c51.13,12.57 203.86,118.62 222.92,190.63 14.93,56.4 -4.64,71.4 48.04,84.44 48.79,-91.89 -9.61,-197.76 -63.81,-244.11 -27.04,-23.11 -175.8,-131.87 -193.82,-175.8 -65.4,-35.17 -13.13,-55.81 -92.26,-73.61 -14.73,19.65 -6.7,0.91 -14.62,31.7 -22.33,86.76 34.39,138.75 93.56,186.75z"/>
   <path class="fil15" d="M13030.19 7049.59c-3.83,53.93 -16.01,216.54 7.61,265.6l31.35 -1.77c37.15,-20.23 23.17,-78.69 69.12,-93.18 76.97,-24.26 74.4,59.09 93.18,106.16 68.36,2.05 58.52,-33.36 58.96,-98.15 0.4,-57.74 8.73,-125.04 -8.54,-178.51l-46.74 -6.13c-54.51,80.12 -55.78,139.24 -137.81,45.23 -23.8,-27.27 -29.89,-36.21 -67.13,-39.23z"/>
   <path class="fil8" d="M13486.07 7980.79c-42.65,-18.22 -35.13,-41.32 -53.8,-78.63 -140.89,-11.05 -70.17,35.35 -155.07,68.63 -11.97,-77.06 9.06,-77.01 7.15,-132.34 -1.56,-45.3 -60.78,-196.72 97.22,-186.83 27.67,1.73 89.29,20.33 112.11,33.58 13.2,90.74 -8.28,84.67 -9.89,152.31 -1.78,74.86 34.25,70.64 2.28,143.28zm-29.04 34.83c75.08,-0.58 112.83,0.39 87.6,-88.17 -30.06,-105.55 -13.01,-63.39 -5.3,-161.39 10.26,-130.72 -112.74,-179.22 -201.54,-162.32 -117.74,22.42 -87.17,153.86 -91.01,280.59 -3.73,123.08 23.22,177.83 118.82,100.15 28.77,-23.39 16.13,-12.97 52.87,-30.44l38.56 61.58z"/>
   <path class="fil19" d="M12546.04 7943.97c4.49,71.33 109.35,141.33 103.39,-83.5 -4.49,-170.15 38.74,-98.21 48.13,-176.32 3.35,-27.9 -4.12,-44.3 -14.43,-59.43l-35.47 -11.2c-53.51,-8.22 -198.65,-16.2 -152.33,87.89 19.85,44.63 47.99,10.37 53.44,99.67 2.73,44.78 -5.54,98.06 -2.73,142.89z"/>
   <path class="fil7" d="M22448.51 7909.89c118.67,-137.26 -13.3,-284.37 138.99,-277.76 38.18,51.32 53.89,202.45 18.2,277.74 -69.89,147.45 -314.46,158.75 -323.73,-95.73 -4.8,-131.5 -9,-212.45 127.04,-149.86 20.74,60.17 2.87,82.55 7.88,148.78 2.88,37.89 29.85,81.35 31.62,96.82zm-175.58 44.59c53.14,41.76 56.63,56.98 84.09,67.85 37.83,14.98 116.78,16.57 156.41,6.55 94.7,-23.96 121.69,-111.47 126.38,-202.88 4.75,-92.53 25.4,-262.02 -102.45,-224.15 -103.45,30.63 -51.74,178.67 -80.97,249.88l-15.87 -48.98c-1.47,-13.52 0.46,-44.62 0.81,-59.75 4.64,-205.85 -143.49,-140.4 -159.92,-122.11 -53.66,58.98 -18.04,250.59 -8.48,333.59z"/>
   <path class="fil1" d="M22107.11 7766.86c-14.13,-63.45 10.77,-84.04 -47.32,-102.97 -81.27,-26.48 -195.48,-63.63 -172.52,108.79 12.15,91.1 -18.15,115.17 38.63,160.24 58.27,-33.66 1.54,-65.11 112.86,-65.57 18.02,38.48 4.91,57.31 48.13,78.63 22.17,-97.17 -36.38,-175.37 20.22,-179.12z"/>
   <path class="fil7" d="M19762.01 6972.38c57.91,-41.88 150.08,-12.46 202.91,41.2l30.18 38.16c1.44,1.97 3.5,4.71 4.93,6.68 65.77,91.13 7.13,214.85 -49.99,261.73 -63.39,52.03 -229.8,57.74 -243.33,-45.99 -4.96,-38.01 -4.33,-147.1 -2.46,-188.12 3.06,-67.45 21.67,-87.57 57.76,-113.66zm281.14 55.87c-76.57,-29.02 -18.22,0.72 -63.79,-53.83 -75.09,-89.9 -250.13,-64.32 -279.5,-6.78 -56.66,111.03 -16.05,374.34 10.1,415.32 64.18,6.16 120.3,10.02 185.02,5.63 82.97,-5.61 73.4,-17.35 106.44,-70.26l15.41 -21.23c2.16,-2.78 9,-10.15 11.13,-12.86 5.73,-7.35 12.41,-16.69 18.73,-27.28l15.02 -28.87c26.58,-74.07 -12,-142.5 -18.57,-199.83z"/>
   <path class="fil7" d="M21859.03 6956.88c119.38,-39.37 180.78,44.93 215.92,140.03 34.5,93.37 -34.71,233.43 -107.38,254.59 -281.75,82.05 -317.69,-325.67 -108.54,-394.61zm-55.5 -22.22c-35.34,16.17 -81.64,84.97 -97.05,127.57 -15.04,41.59 -15.9,165.15 -0.96,206.13 12.22,33.51 19.48,27.24 43.39,60.75 15.5,21.73 25.34,44.11 58.08,55.14 41.41,13.94 171.7,10.7 212.6,-3.63 34.5,-12.09 31.24,-21.42 43.11,-54.52l19.19 -41.67c101.98,-154.8 -20.01,-328.4 -75.11,-351.9 -52.41,-22.33 -154.69,-20.12 -203.26,2.12z"/>
   <path class="fil19" d="M21572.37 7363.99c15.77,-21.09 23.48,-37.32 23.21,-74.93 -34.42,-21.46 -42.43,-23.18 -89.34,-35.26 -10.89,-78.32 -10.01,-104.54 -11.12,-191.2 -1.04,-80.73 -11.26,-95.06 -87.94,-92.81 -20.94,104.29 -25.73,245.73 -8.87,363.28 52.76,45.2 88.16,36.83 174.06,30.91z"/>
   <path class="fil10" d="M14005.05 7989.58c-16.06,-77.89 -48.9,-56.69 -49.09,-152 -0.13,-64 10.76,-98.68 37.13,-138.3 133.83,-201.08 411.41,36.85 282.43,222.87 -78.31,112.96 -100.56,85.22 -256.5,84.18 41.26,48.19 152.78,35.3 208.79,17.99 94.14,-29.11 147.16,-199.57 114.33,-297.71 -10.11,-30.2 -107.14,-130.93 -172.72,-144.71 -30.43,-6.38 -64.98,-2.31 -92.82,4.89 -115.13,29.73 -212.48,229.63 -134.02,347.46 32.29,48.48 37.07,45.48 62.47,55.33z"/>
   <path class="fil15" d="M15077.46 7359.57c41.03,-89.54 9.84,-101.34 20.34,-202.47 8.21,-79.12 85.24,-80.58 38.02,-164.02 -2.79,-2.08 -6.64,-3.93 -9.15,-4.94l-29.42 -10.47c-3.17,-0.63 -28.87,-2.01 -33.34,-2.19 -5.08,-0.2 -80.07,0.9 -80.59,1.02 -65.63,16.26 -39.95,73.33 -12,111.68 52.3,71.72 0.65,173.25 44.79,270.79l61.34 0.59z"/>
   <path class="fil16" d="M13905.35 7000.18c75.91,34.08 -17.89,115.76 -17.9,191.79 -0.01,72.08 45.41,136.18 -52.04,139.6 -20.7,-49.37 -1.16,-121.51 -14.24,-183.22 -15.35,-72.44 -53.37,-55.92 -38.41,-148.61 42.9,-9.53 85.17,-16.34 122.59,0.44zm-125.78 215.07c-0.89,79.67 -9.57,191.48 94.49,163.26 87.24,-23.67 61.78,-107.6 60.76,-187.1 -0.99,-77.52 54.64,-87.28 43.72,-221.06 -95.28,-36.22 -155.82,-48.24 -247.76,9.56 -6.7,120.16 50.06,121.46 48.78,235.34z"/>
   <path class="fil13" d="M23791 7225.83c-3.04,-115.03 -16.5,-58.7 -112,-60.33 -14.65,-58.62 -23.39,-86.19 -11.13,-158.22 80.29,-10.96 82.97,29.98 128.96,128.63 52.84,-2.4 42.14,3.58 65.81,-32.38 29.87,54.35 53.1,112.65 46.1,203.48 -81.84,12.15 -42.63,-10.74 -111.26,-52.96 6.82,27.33 12.34,49.99 35.98,68.92 23.31,18.65 28.76,18.38 54.14,14.14 46.07,-7.69 12.37,-1.61 28.87,-11.85 24.06,-39.39 15.45,-268.48 0.41,-326.79l-49.61 -4.28c-31.1,53.13 8.59,49.3 -35.87,67.22 -1.36,26.96 11.83,15.04 -2.91,31.05 -75.77,-36.83 -53.92,-132.23 -164.44,-124.35 -35.9,95.2 -20.97,59.92 -25.44,165.8 -3.36,80.08 -47.31,86.78 -11.62,177.24 87.32,6.94 49.35,4.87 74.52,-59.11 12.19,-30.95 26.42,-46.06 64.12,-51.28 11.17,54.55 -7.16,-1.51 25.34,25.11z"/>
   <path class="fil8" d="M12196.56 7039.98c32.46,-19.54 62.19,-49.85 118.87,-30.89 27.81,9.31 84.92,43.12 93.28,70.33 17.87,58.24 -34.33,65.06 -38.73,126.68 -4.25,59.5 30.44,71.04 52.37,103.93 -85.6,57.4 -71.3,-53.3 -135.44,-38.91 -52.64,35.02 -23.56,69.82 -94.39,52.04l4.05 -283.17zm238.24 340.24c58.13,-104.65 6.64,-83.87 -15.02,-149.93 -20.74,-63.23 39.17,-51.48 29.21,-172.39 -28.45,-24.17 -79.04,-70.74 -112.81,-93.25 -60.31,-40.23 -99.66,-17.24 -140.13,27.79 -46.05,51.24 -34.82,90.34 -33.14,176.49 1.36,70.22 -10.13,132.52 9.98,189.65 96.86,18.29 80.72,6.65 114.02,-57.18 64.38,23.3 36.01,84.55 147.89,78.82z"/>
   <path class="fil15" d="M15852.67 7871.45l24.1 -36.7c-23.48,-36.92 -36.85,-25.84 -27.93,-89.3 6.52,-46.39 19,-35.5 19.06,-108.14 -94.25,-2.24 -89.2,9.38 -148.91,56.8 -2.63,38.33 -6.96,205.83 -2.19,236.7 14.41,93.29 164.5,99.78 152.69,40.38 -0.36,-1.85 -1.21,-5.43 -1.83,-7.34 -7.04,-21.53 0.22,-0.61 -12.2,-20.84 -28.1,-45.81 -12.7,2.5 -33.69,-68.74 16.74,-14.32 4.84,-1.52 30.87,-2.83z"/>
   <path class="fil7" d="M23391.54 7628.26c6.76,81.96 -8.52,58.12 -25.28,108.83 -15.57,47.09 -7.32,87.72 -6.8,136.05 1.48,140.4 -88.65,123 -115.45,49.28 -20.02,-55.11 4.06,-82.17 3.32,-121.53 -0.81,-42.63 -28.35,-60.8 -35.74,-106.06 -19.94,-122.18 103.7,-79.39 179.94,-66.58zm-185.15 220.3c-3.49,127.91 0.23,190.79 158.35,168.97 36.5,-64.35 0.48,-166.85 26.78,-249.22 13.2,-41.28 94.1,-79.54 9.6,-196.36 -53.99,-4.52 -180.09,-19.01 -221.12,9.91 -48.46,34.16 -29.59,116.71 -1.4,162.96 32.93,54.03 30.33,10.88 27.8,103.73z"/>
   <path class="fil19" d="M23391.54 7628.26c-76.24,-12.81 -199.88,-55.6 -179.94,66.58 7.39,45.26 34.93,63.43 35.74,106.06 0.74,39.36 -23.34,66.41 -3.32,121.53 26.8,73.71 116.93,91.12 115.45,-49.28 -0.52,-48.33 -8.78,-88.96 6.8,-136.05 16.76,-50.71 32.04,-26.87 25.28,-108.83z"/>
   <path class="fil8" d="M14710.98 7986.45l-58.36 -3.8 -39.59 -75.37c-76.23,4.24 -65.43,46.08 -123.89,57.58 -24.22,-69.91 -16.72,-191.87 -13.87,-281.39 37.28,-27 57.34,-55.92 110.81,-43.9 15.74,3.55 95.91,44.12 112.17,57.34 8.08,66.39 -13.31,99.67 -29.1,140.31 11.89,64.46 10.12,20.09 25.83,72.48 8.76,29.18 5.92,43.81 16,76.74zm0 0c22.37,-14.37 10.09,7.95 17.12,-32.82 6.6,-38.25 -21.39,-80.93 -18.98,-114.21 4.04,-55.94 27.76,-65.33 12.64,-166.33 -66.16,-51.91 -194.91,-128.3 -267.9,-23.82 -32.52,46.54 -24.49,181.77 -24.28,270.85 0.16,73.13 4.7,89.08 58.79,94.81 77.13,8.17 71.91,-42.19 112.35,-60.1 41.54,34.54 -4.22,35.98 49.53,58.3 31.98,13.28 67.91,13.93 60.73,-26.69z"/>
   <path class="fil15" d="M24022.27 7710.69c65.68,14.29 106.34,78.49 52.86,154.91 -27.97,39.95 -25.35,28.7 -37.82,87.71 44.37,-2.3 69.76,-5.7 97.86,-48.33 17.06,-25.89 32.09,-72.46 32.02,-114.98 -0.07,-43.84 -8,-73.15 -36.13,-97.94 -5.69,-5.03 -12.29,-9.08 -19.53,-14.44 -68.76,-50.93 -121.23,-58.91 -185.75,-11.02l-26.09 17.82c-54.3,37.1 -62.55,84.18 -50.18,165.87 10.88,71.87 26.64,71.87 85.4,80.67 -1.63,-69.31 -30.77,-103.84 -11.85,-169.55 9.73,-33.83 55.9,-74.74 89.85,-88.32 12.2,27 6.17,23.78 9.36,37.6z"/>
   <path class="fil10" d="M16846.57 8026.11c-2.49,-2.78 -6.57,-10.17 -8.08,-7.71 -2.61,4.19 -72.12,-58.09 -106.21,-146.39 -21.82,-56.55 -19.95,-95.51 26.44,-150.01l37.44 -30.99c8.04,-21.17 28.89,-46.42 56.57,-59.76 32.95,-15.87 82.28,-17.3 118.69,-7.69 30.63,8.09 53.74,27.02 39.3,67.5 -14.91,41.75 -38.52,14.63 -89.64,32.94 -59.81,21.41 -105.14,78.67 -73.02,148.37 27.19,58.98 150.02,51.96 47.63,-31.26 90.48,-59.7 90.24,-41.82 149.4,-10.98 -7.86,-38.25 -19.48,-57.36 -11.13,-104.22 37.04,-207.98 -181.98,-129.57 -195.69,-121 -5.84,3.64 -58.71,51.18 -67.41,59.44 -15.97,15.2 -39.82,43.12 -54.13,62.29 -76.88,102.94 16.6,295.85 129.83,299.46z"/>
   <path class="fil10" d="M21662.52 7641.73c0.19,0.25 40.78,12.54 -12.65,84.89 -87.37,118.27 1.57,96.13 -31.43,201.29 -14.56,46.38 -28.18,30.76 -59.91,55.97 -48.72,-89.03 1.61,-172.67 -39.26,-263.85 -19.46,-43.4 -48.15,-77.75 11.36,-93.78 40.38,-10.87 108.46,-6.7 131.9,15.48zm-149.39 182.5c3.44,82.67 -12.79,135.24 23.43,193.55 72.65,6.22 97.89,-20.76 124.65,-67.99 37.57,-66.34 5.76,-109.28 -6.73,-159.45 40.55,-45.41 69.71,-83.78 65.41,-164.14 -87.83,-102.68 -298.17,-64.17 -273.76,40.09 22.4,95.67 63.18,65.84 67,157.94z"/>
   <path class="fil16" d="M16392.27 7365.52c-122.01,15.32 -136.17,-35.15 -134.39,-149.41 0.65,-41.94 -5.02,-103.21 1.32,-141.41 4.04,-24.37 11.3,-38.43 21.06,-50.3 26.61,-32.36 130.22,-73.48 118.17,-4.15 -12.49,71.91 -13.61,-13.22 -17.21,137.38 -1.7,71.98 -34.41,61.03 -26.33,102.09 11.3,57.37 47.26,-6.33 37.38,105.81zm-67.84 -411.51c-142.16,68.2 -109.04,149.17 -111.53,262.11 -2.03,91.23 0.39,93.86 42.05,144.5 97.49,118.5 229.44,47.39 164.53,-75.7 -45.52,-86.37 -3.53,12.84 -6.94,-151.89 -2.74,-132.47 43.75,-56.04 41.47,-140.02 -1.41,-52.33 -43.14,-58.48 -91.66,-51.26l-37.91 12.27z"/>
   <path class="fil16" d="M16050.13 7171.27c-29.91,14.46 -40.48,39.44 -27.67,76.51 13.57,39.24 15.49,16.63 47.95,45.68l-10.09 67.39c-51.08,-17.19 -46.15,-59.76 -94.42,-70.98 -105.2,-24.5 -33.73,49.24 -141.38,26.5 -4.12,-48.15 10.91,-73.46 8.16,-135.37 -2.64,-59.48 -16.83,-102.69 17.24,-144.79 23.74,-29.33 65.27,-46.81 112.86,-30.12 25.58,8.96 15.19,19.12 119.37,56.68 -5.94,-40.16 5.77,-25.7 -57.79,-72.09 -87.16,-63.61 -159.77,-56.61 -221.81,43.68 -33.7,54.46 -12.64,129.25 -17.19,205.21 -6.29,105.13 -4.76,129.68 97.72,135.18 93.64,-135.47 64.94,26.01 199,8.71 49.87,-145.9 -33.14,-79.82 -31.94,-212.17z"/>
   <path class="fil13" d="M16796.17 7691.02c51.29,-34.68 85.56,-54.13 162.81,-46.54 -43.57,78.67 -182.45,87.63 -134.42,225.02 38.9,111.27 204.14,72.48 110.71,-24.26 24.25,-13.42 25.85,-18.94 65.7,-25.27 116.52,201.77 -190.26,273.77 -240.57,45.91 -23.52,-106.45 28.75,-102 35.76,-174.85zm0 0l-37.44 30.99c-46.39,54.5 -48.26,93.46 -26.44,150.01 34.09,88.3 103.6,150.58 106.21,146.39 1.51,-2.45 5.59,4.93 8.08,7.71 74.51,-3.2 143.44,16.06 191.11,-37.44 42.76,-48 44.71,-109.63 7.41,-158.53 -59.16,-30.84 -58.92,-48.72 -149.4,10.98 102.38,83.21 -20.45,90.23 -47.63,31.26 -32.13,-69.7 13.2,-126.96 73.02,-148.37 51.12,-18.31 74.73,8.81 89.64,-32.94 14.44,-40.48 -8.67,-59.41 -39.3,-67.5 -36.41,-9.61 -85.73,-8.18 -118.69,7.69 -27.68,13.34 -48.53,38.58 -56.57,59.76z"/>
   <path class="fil16" d="M20771.25 7915.85c7.19,-88.06 -5.41,-37.46 -19.19,-55.1 -122.51,2.62 -57.55,93.47 -135.5,93.79 -29.41,-63.74 -23.66,-70.75 -4.8,-132.96 20.26,-66.89 -11.34,-75.57 2.89,-135.29 33.66,-141.22 154.92,25.45 193.85,41.22l31.5 -36.99c31.56,-23.18 -1.53,-13.78 47.5,-15.55 18.63,24.63 7.96,-2.04 14.41,33.62 1.37,7.62 0.93,27.17 0.69,31.31 -7,115.6 9.44,89.73 6.41,225.98 -32.1,0.19 -46.91,3.46 -77.03,-5.46 -20.82,-6.17 -15.73,-6.55 -28.29,-13.02l-28.04 -16.45c27.09,87.09 151.33,134.81 156.81,-22.25 1.11,-31.87 -3.53,-63 -4.39,-94.93 -2.49,-93.18 7.05,-92.37 -13.02,-181.61 -102.3,-4.04 -56.72,6.72 -117.86,48.77 -56.87,-43.02 -30.25,-7.38 -69.95,-75.03 -113.14,-12.96 -145.21,23.1 -143.73,136.94 1.43,108.52 -20.93,175.04 22.63,257.37 130.66,0.52 41.9,-81.69 165.08,-84.37z"/>
   <path class="fil15" d="M16392.27 7365.52c9.88,-112.14 -26.08,-48.44 -37.38,-105.81 -8.08,-41.06 24.62,-30.11 26.33,-102.09 3.6,-150.61 4.72,-65.47 17.21,-137.38 12.05,-69.32 -91.56,-28.21 -118.17,4.15 -9.76,11.87 -17.02,25.93 -21.06,50.3 -6.33,38.2 -0.67,99.47 -1.32,141.41 -1.78,114.27 12.38,164.73 134.39,149.41z"/>
   <path class="fil8" d="M24540.74 7958.83c-2.98,-41.21 -39.66,-101.42 -64.03,-136.39l-57.9 1.94c-20.37,46.69 -10.06,93.25 -42.17,129.39 -16.17,-44.6 -27.5,-262.23 -2.17,-303.29 8.81,-5.52 2.6,-23.04 50.19,-4.76 48.55,18.65 45.23,77.27 97.22,117.53 72.32,-45.32 2.83,-73.89 97.65,-73.5 2.8,89.26 -15.85,71.85 2.55,174.94 5.49,30.77 7.4,62.52 -13.92,84.75 -31.61,32.93 -44.07,13.04 -47.83,12.95 -2.3,-0.07 -8.08,1.98 -9.77,-1.55 -1.71,-3.6 -6.54,-1.41 -9.83,-2zm0 0l6.93 39.62c96.25,-1.12 118.19,-37.8 104.56,-137.63 -12.92,-94.62 21.46,-144.65 0.93,-197.28l-93.02 -8.11c-2.24,5.26 -11.25,26.74 -13.78,31.03l-11 15.97c-1.41,2.04 -5.48,10.04 -6.56,8 -1.09,-2.08 -4.4,5.52 -6.91,7.96l-34.59 -45.83c-33.01,-53.22 -55.09,-69.32 -107.19,-55.89l-17.21 9.11c-35.52,45.86 -20.84,135.55 -21.39,199.74 -0.73,84.85 -8.17,116.18 31.87,175.66 77.17,-33.84 24.86,-76.09 80.79,-118.78 48.94,8.46 7.2,-16.12 45.79,36.14 19.12,25.88 7.84,23.65 40.78,40.3z"/>
   <path class="fil15" d="M21217.66 7776.88c-5.64,-67.15 6.28,-87.11 19.16,-138.1 -72.99,-18.13 -91.49,8.39 -136.28,43.46 -2.69,138.97 24.54,83.46 64.32,149.04 38.24,63.11 -8.99,69.11 -9.41,160.09 87.22,4.94 96.58,-18.33 171.3,-95.52 -24.68,-94.7 -52.15,-73.67 -109.09,-118.97z"/>
   <path class="fil15" d="M16796.17 7691.02c-7.01,72.85 -59.28,68.41 -35.76,174.85 50.31,227.86 357.09,155.87 240.57,-45.91 -39.85,6.33 -41.45,11.85 -65.7,25.27 93.43,96.74 -71.81,135.53 -110.71,24.26 -48.03,-137.4 90.85,-146.35 134.42,-225.02 -77.26,-7.59 -111.53,11.87 -162.81,46.54z"/>
   <path class="fil15" d="M14239.39 7263.8c9.48,-43.72 31.69,-62.08 31.31,-105.28 -0.59,-68.7 -17.98,-40.61 12.19,-123.49 0.83,-2.26 2.72,-5.47 3.31,-7.57 21.2,-74.97 -116.22,-12.7 -133.39,24.25 -4.64,36.32 -8.04,212.77 -2.21,244.73 13.52,74.32 83.22,75.55 144.07,58.28 -1.15,-72.46 -8.64,-56.97 -55.27,-90.91z"/>
   <path class="fil8" d="M13030.19 7049.59c37.24,3.02 43.34,11.96 67.13,39.23 82.04,94.01 83.3,34.89 137.81,-45.23l46.74 6.13c17.28,53.47 8.94,120.77 8.54,178.51 -0.44,64.79 9.4,100.2 -58.96,98.15 -18.78,-47.07 -16.21,-130.42 -93.18,-106.16 -45.95,14.5 -31.97,72.95 -69.12,93.18l-31.35 1.77c-23.62,-49.06 -11.44,-211.67 -7.61,-265.6zm-3.47 311.66c98.29,-3.81 78.19,-48.69 108.63,-120.55l46.63 8c17.98,49 5.57,99 54.96,110.88 143.93,34.59 75.49,-314.5 66.2,-338.3l-82.59 -7.42c-32.1,51.75 -16.19,64.81 -75.85,86.06 -50.11,-43.29 -34.59,-65.85 -101.58,-94.72 -69.74,47.91 -45.14,79.07 -44.61,175.45 0.61,113.61 -20.57,100.76 28.19,180.59z"/>
   <path class="fil15" d="M14518.76 7098.54l2.89 -0.98c-3.2,92.86 -21.29,120.06 25.06,184.89 12.8,17.91 47.25,86.19 99.76,79.86 68.57,-8.26 19.84,15.11 41.5,-29.23 41.01,-82.86 -87.46,-8.93 -79.87,-152 5.59,-105.12 51.87,-91.87 134.39,-117.65l3.27 -67.74c-203.54,-13.17 -122.2,69.63 -227,102.86z"/>
   <path class="fil13" d="M20859.95 7770.98c15.46,81.73 51.06,81.33 22.93,167.6 -65.03,20.95 -75.04,-16.88 -99.94,-73.23 -26.57,-60.11 -50.47,-45.72 -124.96,-47.84 -8.72,-47.59 -63.15,-212.98 54.86,-145.25 30.13,17.31 29.76,54.99 54.46,78.42 32.86,31.17 40.06,17.91 92.67,20.3zm-88.7 144.86l4.43 15.11 28.04 16.45c12.56,6.47 7.46,6.85 28.29,13.02 30.11,8.92 44.93,5.65 77.03,5.46 3.02,-136.25 -13.41,-110.38 -6.41,-225.98 0.24,-4.14 0.68,-23.69 -0.69,-31.31 -6.45,-35.66 4.22,-8.99 -14.41,-33.62 -49.03,1.77 -15.94,-7.63 -47.5,15.55l-31.5 36.99c-38.93,-15.78 -160.19,-182.44 -193.85,-41.22 -14.24,59.72 17.37,68.41 -2.89,135.29 -18.86,62.22 -24.61,69.22 4.8,132.96 77.95,-0.32 12.98,-91.17 135.5,-93.79 13.77,17.64 26.37,-32.96 19.19,55.1z"/>
   <path class="fil10" d="M11767.72 7988.48c-26.78,-53.73 -14.76,-106.8 -15.96,-174.73 -1.37,-78.65 -17.62,-114.74 27.24,-153.31 78.54,22.82 43.34,42.93 46.61,176.85 2.05,84.43 18.85,144.31 -57.88,151.19zm110.55 -221.59c25.34,-135.14 -69.4,-168.25 -107.7,-159.55 -78.67,17.85 -55.19,193.41 -55.3,241.65 -0.19,89.48 -14.12,216.48 115.91,170.51 77.8,-27.52 31.89,-171.6 47.08,-252.61z"/>
   <path class="fil15" d="M20351.92 7309.64l-84.49 -46.97c13.35,-59.99 30.13,-42.3 26.18,-128.8 -5.06,-110.93 10.43,-72.32 20.02,-142.15 -141.72,-39.2 -134.2,66.75 -135.37,200.93 -0.52,59.71 -2.93,117.03 42.43,139.14 52.33,25.48 102.37,5.75 131.23,-22.15z"/>
   <path class="fil15" d="M12896.04 7682.33c-6.51,75.19 -9.29,239.43 10.36,298.26 34.91,20.26 59.03,26.99 114.9,18.3 8.8,-63.76 -12.91,-84.61 -59.26,-103.04l64.95 -40.65c-9.24,-41.72 -18.44,-43.55 -21.82,-77.7 -4.76,-47.93 12.26,-61.22 8.4,-94.89 -10.05,-87.82 -84.62,-20.04 -117.52,-0.29z"/>
   <path class="fil16" d="M15852.67 7871.45c-26.04,1.3 -14.13,-11.49 -30.87,2.83 20.98,71.23 5.58,22.93 33.69,68.74 12.41,20.23 5.16,-0.69 12.2,20.84 0.61,1.91 1.47,5.48 1.83,7.34 11.81,59.41 -138.28,52.91 -152.69,-40.38 -4.77,-30.87 -0.44,-198.37 2.19,-236.7 59.71,-47.43 54.66,-59.04 148.91,-56.8 -0.07,72.63 -12.54,61.75 -19.06,108.14 -8.92,63.46 4.45,52.39 27.93,89.3l-24.1 36.7zm0 0l47.56 -9.33c5.63,-75.58 -25.5,-59.59 -2.36,-131.7 6.2,-19.3 25.85,-32.42 12.36,-89.36 -9.64,-40.69 -28.8,-38.36 -56.65,-42.19 -195.17,-26.89 -161.45,188.44 -162.54,250.11 -1.65,93.42 -15.78,150.81 63.72,174.93 88.66,26.89 112.87,17.8 170.11,-19.07 0.59,-76.72 -4.01,-84.58 -66.85,-101.8l-5.36 -31.59z"/>
   <path class="fil8" d="M23370.57 7321.3c-8.04,3.46 6.07,6.67 -34.09,9.5 -19.06,1.36 -12.58,3.52 -33.39,-1.81 -91.63,-23.43 -45.66,-288.47 -41.23,-298.03 21.65,-46.65 34.66,-53.2 98.77,-50.37 3.96,21.19 5.52,163.58 3.83,188.85 -6.79,101.1 -28.31,15.3 0.41,112.97l5.7 38.88zm86.46 -30.96c-44.06,-16.39 -70.83,-7.41 -86.88,-51.04 32.69,-41.36 18.16,-121.57 20.2,-180.26 22.7,-18.68 31.89,-24.62 61.36,-40.23 -10.48,-35.87 -0.29,-16.26 -19.17,-42.98 -39.42,-55.81 -125.94,-38.53 -153.6,-20.03 -80.55,53.9 -86,362.87 -3.11,405.86 31.13,16.15 81.12,13.75 113.39,5.37 54.72,-14.21 53.68,-29.62 67.8,-76.7z"/>
   <path class="fil10" d="M13754.2 7992.89c-87,-9.47 -63.06,-66.9 -61.78,-155.61 0.96,-66.23 -20.07,-160.22 31.06,-174.9 92.01,-26.42 61.3,82.24 58.3,140 -4.6,88.02 20.83,133.42 -27.58,190.5zm-84.77 -167.39c0,43.4 -11.43,180.45 16.59,197.85 51.46,31.96 126.61,-11.58 150.76,-30.13 0.24,-78.85 20.33,-285.11 -20.35,-338.55 -28.93,-38 -50.43,-49.57 -115.63,-47.68 -45.44,65.22 -31.37,112.26 -31.37,218.5z"/>
   <path class="fil1" d="M12051.96 7812.71c27.7,13.29 86.2,11.92 121.69,70.18 0.16,0.25 61.96,176.39 120.15,81.5 33.43,-141.17 -47.78,-166.77 -146.13,-192.9 -10.33,-45.16 -13.46,-68.69 -41.34,-106.34 -104.65,-0.51 -80.31,78.21 -54.37,147.56z"/>
   <path class="fil8" d="M22505.52 7991.2c-94.48,2.27 -137.88,2.28 -179.89,-76.65 -27.37,-51.41 -40.27,-170.56 -12.49,-236.79 119.48,-22.57 61.04,50.67 64.87,124.38 2.16,41.57 51.52,115.27 78.37,128.49 122.74,-117.46 39.91,-183.87 72.09,-243.2 17.5,-32.27 53.27,-25.51 68.68,1.56 10.63,18.68 0.97,170.09 -5.93,193.16 -13.49,45.11 -62.81,65.67 -85.7,109.05zm-57.02 -81.31c-1.77,-15.47 -28.74,-58.94 -31.62,-96.82 -5.01,-66.23 12.87,-88.61 -7.88,-148.78 -136.04,-62.59 -131.84,18.36 -127.04,149.86 9.26,254.48 253.83,243.18 323.73,95.73 35.69,-75.29 19.98,-226.43 -18.2,-277.74 -152.29,-6.62 -20.31,140.5 -138.99,277.76z"/>
   <path class="fil10" d="M16519.48 7990.76c-41.31,-57.23 -20.69,-99.04 -22.46,-176.99 -1.55,-68.1 -26.49,-155.01 44.98,-152.94 65.28,1.9 44.34,99.45 44.09,152.92 -0.37,75.61 6.48,106.19 -11.69,174.68l-54.91 2.34zm77.94 8.39c27.9,-47.44 14.82,-221.98 12.45,-291.54 -1.99,-58.46 4.2,-94.72 -45.98,-101.7 -158.93,-22.1 -119.41,155.93 -118.7,314.26 0.61,139.85 122.8,114.59 152.22,78.98z"/>
   <path class="fil15" d="M21618.43 7927.91c33.01,-105.16 -55.94,-83.02 31.43,-201.29 53.43,-72.34 12.84,-84.64 12.65,-84.89 -23.44,-22.19 -91.52,-26.35 -131.9,-15.48 -59.51,16.02 -30.82,50.38 -11.36,93.78 40.87,91.19 -9.46,174.83 39.26,263.85 31.73,-25.22 45.35,-9.59 59.91,-55.97z"/>
   <path class="fil15" d="M23364.87 7282.41c-28.73,-97.67 -7.2,-11.87 -0.41,-112.97 1.69,-25.27 0.13,-167.67 -3.83,-188.85 -64.11,-2.84 -77.12,3.71 -98.77,50.37 -4.43,9.56 -50.39,274.6 41.23,298.03 20.81,5.33 14.33,3.17 33.39,1.81 40.15,-2.83 26.05,-6.04 34.09,-9.5l-5.7 -38.88z"/>
   <path class="fil10" d="M23630.22 7967.39c-58.37,-33.07 -47.44,-68.52 -45.59,-153.5 2.48,-114.12 -19.34,-90.55 32.74,-165.13 40.1,12.16 19.44,8.36 52.74,29.07 7.02,53.67 0.37,114.49 2.3,171.68 2.39,70.89 6.57,89.58 -42.19,117.89zm-90.56 -48.08c14.56,71.7 201.27,254.95 166.16,-223.81 -13.7,-186.83 -229.8,-89.7 -166.16,223.81z"/>
   <path class="fil15" d="M22945.98 7992.48c1.4,-96.85 5.16,-44.98 -48.98,-96.66l-31.94 -37.07c-13.89,-22.95 -15.15,-18.78 -14.36,-56.36 2.61,-123.92 87.46,-49.44 116.9,-166.56 -83.3,-18.35 -83.01,-28.12 -137.26,27.42 -107.66,110.23 -56.92,335.92 115.63,329.23z"/>
   <path class="fil10" d="M17336.22 7644.72l86.22 105.84 22.81 -46.96c4.4,-10.19 4.27,-13.2 11.05,-26.21 103.93,-14.67 62.33,50.26 57.33,126.61 -5.21,79.86 28.92,94.55 2.35,188.9 -128.37,38.87 -100.94,-28.08 -138.68,-122.39l-58.94 0.18c-29.06,52.56 -25.05,126.84 -112.18,108.02 4.89,34.96 -8.37,23.44 6.73,41.3l78.36 -4.13c44.65,-52.26 12.68,-52.56 74.72,-92.22 11.53,27.97 8.41,148.77 171.8,92.03 25.92,-72.23 8.45,-140.9 10.35,-225.37 1.02,-45.7 11.41,-120.54 -18.65,-156.93 -39.76,-48.12 -84.6,-12.71 -112.41,58.71 -18.06,-19.81 -49.38,-37.18 -80.87,-47.37z"/>
   <path class="fil8" d="M22107.11 7766.86c-56.6,3.75 1.95,81.95 -20.22,179.12 -43.22,-21.31 -30.1,-40.15 -48.13,-78.63 -111.31,0.46 -54.59,31.91 -112.86,65.57 -56.78,-45.07 -26.49,-69.14 -38.63,-160.24 -22.97,-172.42 91.25,-135.26 172.52,-108.79 58.09,18.93 33.19,39.52 47.32,102.97zm0 0c10.81,-10.01 8.41,18.51 17.08,-36.19 18.61,-117.62 -165.24,-163.13 -237.53,-86.57 -56.07,59.37 -28.57,98.46 -31.29,193.46 -2.89,101.27 -0.43,118.48 81.81,145.79 37.53,-33.73 26.88,-77.1 65.75,-71.22 63.19,9.56 -12.12,60.28 92.28,64.81 23.82,-30.11 6.85,23.76 21.54,-45.31l-9.64 -164.77z"/>
   <path class="fil1" d="M22900.87 7303.56l1.53 -14.97 -5.77 -84.83c-67.19,-49.56 -93.25,-6.73 -114.05,-123.78 -2.88,-16.23 -3.64,-30.98 -8.8,-47.11 -7.84,-24.45 12.94,-8.2 -19.45,-32.03 -116.02,-85.37 -68.68,240.63 -60.98,285.36 -48.13,-18.58 44.27,-85 44.63,-85.98 2.46,-6.77 7.73,-5.4 11.8,-7.76 30.2,46.83 91.89,119.22 151.08,111.1z"/>
   <path class="fil10" d="M19074.81 7036.66c66.33,91.84 56.71,99.55 -4.13,177.71 -72.87,4.98 -141.11,-6.95 -147.81,-81.15 -8.7,-96.32 76.67,-99.12 151.94,-96.56zm51.94 203.99c28.69,-50.76 60.7,-87.17 48.35,-135.08 -37.7,-146.44 -258.59,-156.69 -287.19,-34.87 -46.95,199.98 114.02,178.13 238.84,169.95z"/>
   <path class="fil1" d="M20657.97 7817.51c74.5,2.12 98.4,-12.27 124.96,47.84 24.9,56.35 34.91,94.18 99.94,73.23 28.13,-86.27 -7.47,-85.87 -22.93,-167.6 -52.61,-2.39 -59.8,10.87 -92.67,-20.3 -24.7,-23.43 -24.33,-61.11 -54.46,-78.42 -118,-67.73 -63.57,97.65 -54.86,145.25z"/>
   <path class="fil4" d="M8962.33 6179.49c34.44,60.04 73.16,101.32 62.89,192.37 -22.25,2.41 -82.94,6.83 -103.34,4.21 -67.27,-8.6 -61.07,-64.3 -25.06,-147.11 19.7,-45.31 23.77,-34.05 65.51,-49.48zm104.31 235.33c31.31,-133.91 -110.67,-413.5 -198.02,-194.69 -17.81,44.66 -93.25,138.91 -41.31,192.65 31.31,32.4 198.84,15.43 239.33,2.04z"/>
   <path class="fil12" d="M23791 7225.83l6.49 28.21c68.63,42.22 29.42,65.11 111.26,52.96 7,-90.83 -16.22,-149.13 -46.1,-203.48 -23.68,35.96 -12.97,29.98 -65.81,32.38 -45.99,-98.65 -48.67,-139.6 -128.96,-128.63 -12.26,72.04 -3.52,99.61 11.13,158.22 95.49,1.63 108.96,-54.7 112,60.33z"/>
   <path class="fil19" d="M13503.37 7359.24c86.85,0.72 77.01,4.87 77,-155.11 0,-60.89 19.01,-172.11 -31.5,-189.21 -84.84,-28.71 -69.85,91.17 -68.67,154 1.87,99.58 -13.82,113.94 23.17,190.32z"/>
   <path class="fil8" d="M12896.04 7682.33c32.9,-19.74 107.47,-87.53 117.52,0.29 3.87,33.67 -13.16,46.96 -8.4,94.89 3.39,34.15 12.58,35.98 21.82,77.7l-64.95 40.65c46.35,18.43 68.06,39.28 59.26,103.04 -55.87,8.7 -79.98,1.96 -114.9,-18.3 -19.65,-58.84 -16.87,-223.07 -10.36,-298.26zm164.86 173c-12.1,-60.42 -8.24,-16.08 -21.25,-61.61 -25.77,-90.22 32.86,-40.45 25.94,-167.29 -196.13,-61.72 -194.43,22.75 -196.19,199.07 -0.92,91.92 -24.41,280.76 202.2,181.76 -0.12,-73.19 -22.72,-86.77 -63.43,-122.12 18.93,8.76 -29.87,17.28 14.43,-1.97l38.3 -27.85z"/>
   <path class="fil8" d="M18958.04 7790.5c-9.05,-82.12 -14.7,-145.78 88.16,-127.12 76.45,13.87 47.54,102.39 23.45,149.71 -60.57,3.41 -72.98,0.48 -111.61,-22.59zm-58.52 -108.33c-3.24,69.49 -12.36,102.22 27.02,140.59 79.7,77.69 237.26,71.05 218.63,-145.94 -45.46,-30.28 -67.45,-68.25 -131.15,-64.47 -54.16,3.21 -76.33,41.24 -114.5,69.82z"/>
   <path class="fil15" d="M13835.4 7331.57c97.45,-3.42 52.03,-67.52 52.04,-139.6 0.01,-76.04 93.81,-157.71 17.9,-191.79 -37.42,-16.78 -79.69,-9.97 -122.59,-0.44 -14.97,92.7 23.05,76.18 38.41,148.61 13.08,61.7 -6.46,133.85 14.24,183.22z"/>
   <path class="fil19" d="M13754.2 7992.89c48.42,-57.08 22.98,-102.49 27.58,-190.5 3,-57.76 33.71,-166.42 -58.3,-140 -51.14,14.68 -30.1,108.67 -31.06,174.9 -1.28,88.71 -25.22,146.13 61.78,155.61z"/>
   <path class="fil19" d="M16519.48 7990.76l54.91 -2.34c18.17,-68.49 11.32,-99.07 11.69,-174.68 0.25,-53.46 21.19,-151.02 -44.09,-152.92 -71.47,-2.06 -46.53,84.84 -44.98,152.94 1.78,77.95 -18.85,119.76 22.46,176.99z"/>
   <path class="fil15" d="M22253.17 7051.7l0 246.28c82.31,0 28.04,27.35 102.85,-83.39 9.01,-13.33 26.34,-2.09 11.49,-53.46 -18.28,-63.24 -53.37,-1.86 -21.26,-111.21 0.52,-1.77 6.88,-25.91 6.93,-26.31l-0.2 -19.06c0,-2.31 -0.17,-6.74 -1.04,-9.96 -5.43,-2.23 -30.94,-23.46 -66.39,7.33l-32.38 49.78z"/>
   <path class="fil7" d="M14085.7 7925.89c157.6,14.87 126.74,-178.98 74.44,-204.19 -56.5,-27.24 -91.73,25.87 -102.98,64.56 -16.34,56.26 7.78,106.83 28.54,139.63z"/>
   <path class="fil19" d="M23630.22 7967.39c48.77,-28.3 44.58,-47 42.19,-117.89 -1.93,-57.19 4.72,-118.01 -2.3,-171.68 -33.3,-20.7 -12.64,-16.91 -52.74,-29.07 -52.08,74.58 -30.26,51.02 -32.74,165.13 -1.85,84.98 -12.78,120.43 45.59,153.5z"/>
   <path class="fil8" d="M10962.1 7105.48c61.2,-43.15 112.09,-37.4 158.88,5.12 7.17,78.98 -4.24,95.34 -41.76,144.13 -95.21,5.31 -130.17,-45.24 -117.11,-149.25zm163.08 169.47c28.99,-84.71 60.07,-224.47 -69.22,-238.02 -107.42,-11.26 -183.39,100.67 -111.09,201 47.54,65.96 96.1,53.31 180.3,37.02z"/>
   <path class="fil10" d="M11120.44 7919.31c-25.56,31.31 -118.9,30.91 -147.95,4.69 -40.9,-36.92 -28.09,-128.3 1.4,-161.05 100.11,-111.22 216.84,70.24 146.55,156.35zm1.77 -206.97c-86.17,-8.96 -163.67,-21.82 -195.94,50.1 -35.94,80.13 -29.01,233.91 153.37,208.66 41.77,-5.79 62.35,-16.76 72.88,-56.42 19.94,-75.18 4.72,-145.03 -30.31,-202.34z"/>
   <path class="fil15" d="M11767.72 7988.48c76.73,-6.88 59.93,-66.76 57.88,-151.19 -3.27,-133.92 31.93,-154.03 -46.61,-176.85 -44.86,38.57 -28.61,74.65 -27.24,153.31 1.2,67.94 -10.82,121 15.96,174.73z"/>
   <path class="fil20" d="M8962.33 6179.49c-41.74,15.43 -45.81,4.17 -65.51,49.48 -36.01,82.81 -42.21,138.5 25.06,147.11 20.39,2.61 81.09,-1.8 103.34,-4.21 10.27,-91.05 -28.45,-132.33 -62.89,-192.37z"/>
   <path class="fil7" d="M25384.24 6236.02l4.07 -107.29c-208.48,-171.56 -214.55,240.34 -4.07,107.29z"/>
   <path class="fil15" d="M11000.92 7791.08c104.25,-16.87 95.2,8.6 92.45,112.09l-107.74 -10.2 15.29 -101.89zm119.53 128.23c70.29,-86.12 -46.43,-267.58 -146.55,-156.35 -29.49,32.75 -42.3,124.13 -1.4,161.05 29.05,26.21 122.39,26.61 147.95,-4.69z"/>
   <path class="fil11" d="M18958.04 7790.5c38.62,23.07 51.03,25.99 111.61,22.59 24.09,-47.32 53,-135.83 -23.45,-149.71 -102.86,-18.65 -97.21,45 -88.16,127.12z"/>
   <path class="fil7" d="M24022.27 7710.69c-84.82,21.39 -141.06,101.44 -19.58,194.78 21.02,-17.97 59.1,-48.69 65.07,-82.53 11.5,-65.26 -29.68,-56.3 -45.49,-112.25z"/>
   <path class="fil15" d="M18969.71 7087.13c46.67,-15.06 124.63,-46.43 113.38,45.82 -8.53,70.1 -74,52.73 -114.63,24.35l1.25 -70.17zm105.1 -50.48c-75.28,-2.56 -160.65,0.24 -151.94,96.56 6.7,74.2 74.94,86.13 147.81,81.15 60.84,-78.16 70.47,-85.87 4.13,-177.71z"/>
   <path class="fil10" d="M19804.69 7099.33c-6.4,92.02 -7.64,140.85 67.72,163.71 49.94,-72.84 67.18,-135.26 -0.72,-192.09 -36.06,5.35 -39.56,13 -67,28.39z"/>
   <path class="fil1" d="M11010.29 7110.33c90.52,-44.11 97.83,52.39 69.32,83.57 -43.13,47.17 -107.9,-5.78 -69.32,-83.57zm-48.19 -4.85c-13.05,104.01 21.9,154.56 117.11,149.25 37.52,-48.78 48.94,-65.15 41.76,-144.13 -46.79,-42.52 -97.68,-48.27 -158.88,-5.12z"/>
   <path class="fil7" d="M20315.62 7875.84l33.41 -100.73c-148.32,-114.73 -145.56,47.79 -124.72,80.95 21.16,33.69 51,23.9 91.32,19.78z"/>
   <path class="fil17" d="M21871.61 7077c-14.9,75.15 -11.54,105.98 3.44,169.56l66.78 -1.62c34.15,-143.56 21.86,-180.42 -70.22,-167.94z"/>
   <path class="fil7" d="M17169.3 5504.08c0,0 25.05,-5.98 8.16,-68.15 -24.28,-89.33 -156.01,-75.15 -118.93,30.73 13.82,39.43 66.35,66.13 110.76,37.42z"/>
   <path class="fil13" d="M11526.84 5266.29c1.32,-3.46 2.92,-12.39 3.09,-10.68 0.16,1.66 2.32,-7.88 2.35,-10.51 0.45,-30 5.63,-41.65 -32.78,-62.4 -26.83,-14.5 -89.6,-22.82 -110.39,-0.18 -45.03,49.04 48.61,124.64 137.74,83.76z"/>
   <path class="fil11" d="M18969.71 7087.13l-1.25 70.17c40.63,28.39 106.1,45.75 114.63,-24.35 11.25,-92.25 -66.71,-60.87 -113.38,-45.82z"/>
   <path class="fil18" d="M10985.63 7892.97l107.74 10.2c2.74,-103.5 11.8,-128.96 -92.45,-112.09l-15.29 101.89z"/>
   <path class="fil1" d="M24178.69 6998.96l-9.02 51.04c1.35,11.22 11.19,36.87 15.26,50.75 116.83,1.44 89.29,-96.57 82.56,-103.3 -37.78,-16.2 -52.79,-15.36 -88.8,1.51z"/>
   <path class="fil13" d="M21105.09 6055.61c0.96,-15.9 -2.49,-31.43 -4.31,-47.09 -44.1,-11.93 -27.09,-15.9 -81.63,-16.06 -4.25,66.58 -8.22,108.33 37.49,113.91 39.54,4.82 35.93,4.82 42.37,-20.52 0.59,-2.33 2.53,-6.3 3.11,-9.27 7.19,-37.04 0.59,18.36 2.97,-20.96z"/>
   <path class="fil18" d="M11010.29 7110.33c-38.58,77.8 26.19,130.74 69.32,83.57 28.52,-31.19 21.2,-127.68 -69.32,-83.57z"/>
   <path class="fil15" d="M13347.05 5199.75c-25.06,-15.46 -43.99,-26.56 -89.24,-23.08 -9.49,53.87 -18.88,89.41 33.79,97.78 66.2,10.5 59.44,-21.99 55.44,-74.7z"/>
   <polygon class="fil8" points="16312.68,5895.6 -1505.66,-5716.09 "/>
  </g>
 </g>
</svg>
